<mxfile host="app.diagrams.net" modified="2021-02-08T01:53:47.187Z" agent="5.0 (Windows NT 10.0; Win64; x64) AppleWebKit/537.36 (KHTML, like Gecko) Chrome/88.0.4324.96 Safari/537.36 Edg/88.0.705.56" etag="ILzYaKDMCy9MI7LLOkBs" version="14.2.9" type="github">
  <diagram id="iYLUZS0quzLaNNcRf0Cq" name="Page-1">
    <mxGraphModel dx="1038" dy="575" grid="1" gridSize="10" guides="1" tooltips="1" connect="1" arrows="1" fold="1" page="1" pageScale="1" pageWidth="827" pageHeight="1169" math="0" shadow="0">
      <root>
        <mxCell id="0" />
        <mxCell id="1" parent="0" />
        <mxCell id="Bj3Hy20XeD-8B7DW6OU9-12" style="edgeStyle=orthogonalEdgeStyle;rounded=0;orthogonalLoop=1;jettySize=auto;html=1;exitX=0.5;exitY=1;exitDx=0;exitDy=0;exitPerimeter=0;entryX=0.5;entryY=0;entryDx=0;entryDy=0;" edge="1" parent="1">
          <mxGeometry relative="1" as="geometry">
            <mxPoint x="320" y="100" as="sourcePoint" />
            <mxPoint x="315" y="120" as="targetPoint" />
          </mxGeometry>
        </mxCell>
        <mxCell id="Bj3Hy20XeD-8B7DW6OU9-3" value="开始" style="strokeWidth=2;html=1;shape=mxgraph.flowchart.terminator;whiteSpace=wrap;" vertex="1" parent="1">
          <mxGeometry x="275" y="60" width="80" height="40" as="geometry" />
        </mxCell>
        <mxCell id="Bj3Hy20XeD-8B7DW6OU9-11" value="" style="group" vertex="1" connectable="0" parent="1">
          <mxGeometry x="160" y="120" width="310" height="50" as="geometry" />
        </mxCell>
        <mxCell id="Bj3Hy20XeD-8B7DW6OU9-9" value="&lt;font style=&quot;font-size: 12px&quot;&gt;&lt;span class=&quot;mord cjk_fallback&quot; style=&quot;color: rgb(50 , 55 , 63) ; font-family: &amp;#34;katex_main&amp;#34; , &amp;#34;times new roman&amp;#34; , serif ; text-align: left ; background-color: rgb(255 , 255 , 255)&quot;&gt;输&lt;/span&gt;&lt;span class=&quot;mord cjk_fallback&quot; style=&quot;color: rgb(50 , 55 , 63) ; font-family: &amp;#34;katex_main&amp;#34; , &amp;#34;times new roman&amp;#34; , serif ; text-align: left ; background-color: rgb(255 , 255 , 255)&quot;&gt;入&lt;/span&gt;&lt;span class=&quot;mord cjk_fallback&quot; style=&quot;color: rgb(50 , 55 , 63) ; font-family: &amp;#34;katex_main&amp;#34; , &amp;#34;times new roman&amp;#34; , serif ; text-align: left ; background-color: rgb(255 , 255 , 255)&quot;&gt;：&lt;/span&gt;&lt;span class=&quot;mord&quot; style=&quot;color: rgb(50 , 55 , 63) ; font-family: &amp;#34;katex_main&amp;#34; , &amp;#34;times new roman&amp;#34; , serif ; text-align: left ; background-color: rgb(255 , 255 , 255)&quot;&gt;&lt;span class=&quot;mord&quot;&gt;&lt;span class=&quot;mord mathcal&quot; style=&quot;font-family: &amp;#34;katex_caligraphic&amp;#34; ; margin-right: 0.14736em&quot;&gt;N&lt;/span&gt;&lt;/span&gt;&lt;span class=&quot;msupsub&quot;&gt;&lt;span class=&quot;vlist-t vlist-t2&quot; style=&quot;display: inline-table ; table-layout: fixed ; border-collapse: collapse ; margin-right: -2px&quot;&gt;&lt;span class=&quot;vlist-r&quot; style=&quot;display: table-row&quot;&gt;&lt;span class=&quot;vlist&quot; style=&quot;display: table-cell ; vertical-align: bottom ; position: relative ; height: 0.328331em&quot;&gt;&lt;span style=&quot;display: block ; height: 0px ; position: relative ; top: -2.55em ; margin-right: 0.05em&quot;&gt;&lt;span class=&quot;pstrut&quot; style=&quot;display: inline-block ; overflow: hidden ; width: 0px ; height: 2.7em&quot;&gt;&lt;/span&gt;&lt;span class=&quot;sizing reset-size6 size3 mtight&quot; style=&quot;display: inline-block&quot;&gt;&lt;span class=&quot;mord mtight&quot;&gt;&lt;span class=&quot;mord mtight&quot;&gt;&lt;span class=&quot;mord mathcal mtight&quot; style=&quot;font-family: &amp;#34;katex_caligraphic&amp;#34; ; margin-right: 0.07382em&quot;&gt;I&lt;/span&gt;&lt;/span&gt;&lt;/span&gt;&lt;/span&gt;&lt;/span&gt;&lt;/span&gt;&lt;span class=&quot;vlist-s&quot; style=&quot;display: table-cell ; vertical-align: bottom ; width: 2px ; min-width: 2px&quot;&gt;​&lt;/span&gt;&lt;/span&gt;&lt;span class=&quot;vlist-r&quot; style=&quot;display: table-row&quot;&gt;&lt;span class=&quot;vlist&quot; style=&quot;display: table-cell ; vertical-align: bottom ; position: relative ; height: 0.15em&quot;&gt;&lt;span style=&quot;display: block ; height: 0px ; position: relative&quot;&gt;&lt;/span&gt;&lt;/span&gt;&lt;/span&gt;&lt;/span&gt;&lt;/span&gt;&lt;/span&gt;&lt;span class=&quot;mord cjk_fallback&quot; style=&quot;color: rgb(50 , 55 , 63) ; font-family: &amp;#34;katex_main&amp;#34; , &amp;#34;times new roman&amp;#34; , serif ; text-align: left ; background-color: rgb(255 , 255 , 255)&quot;&gt;，&lt;/span&gt;&lt;span class=&quot;mord&quot; style=&quot;color: rgb(50 , 55 , 63) ; font-family: &amp;#34;katex_main&amp;#34; , &amp;#34;times new roman&amp;#34; , serif ; text-align: left ; background-color: rgb(255 , 255 , 255)&quot;&gt;&lt;span class=&quot;mord&quot;&gt;&lt;span class=&quot;mord mathcal&quot; style=&quot;font-family: &amp;#34;katex_caligraphic&amp;#34; ; margin-right: 0.14736em&quot;&gt;N&lt;/span&gt;&lt;/span&gt;&lt;span class=&quot;msupsub&quot;&gt;&lt;span class=&quot;vlist-t vlist-t2&quot; style=&quot;display: inline-table ; table-layout: fixed ; border-collapse: collapse ; margin-right: -2px&quot;&gt;&lt;span class=&quot;vlist-r&quot; style=&quot;display: table-row&quot;&gt;&lt;span class=&quot;vlist&quot; style=&quot;display: table-cell ; vertical-align: bottom ; position: relative ; height: 0.328331em&quot;&gt;&lt;span style=&quot;display: block ; height: 0px ; position: relative ; top: -2.55em ; margin-right: 0.05em&quot;&gt;&lt;span class=&quot;pstrut&quot; style=&quot;display: inline-block ; overflow: hidden ; width: 0px ; height: 2.7em&quot;&gt;&lt;/span&gt;&lt;span class=&quot;sizing reset-size6 size3 mtight&quot; style=&quot;display: inline-block&quot;&gt;&lt;span class=&quot;mord mtight&quot;&gt;&lt;span class=&quot;mord mtight&quot;&gt;&lt;span class=&quot;mord mathcal mtight&quot; style=&quot;font-family: &amp;#34;katex_caligraphic&amp;#34; ; margin-right: 0.08944em&quot;&gt;E&lt;/span&gt;&lt;/span&gt;&lt;/span&gt;&lt;/span&gt;&lt;/span&gt;&lt;/span&gt;&lt;span class=&quot;vlist-s&quot; style=&quot;display: table-cell ; vertical-align: bottom ; width: 2px ; min-width: 2px&quot;&gt;​&lt;/span&gt;&lt;/span&gt;&lt;span class=&quot;vlist-r&quot; style=&quot;display: table-row&quot;&gt;&lt;span class=&quot;vlist&quot; style=&quot;display: table-cell ; vertical-align: bottom ; position: relative ; height: 0.15em&quot;&gt;&lt;span style=&quot;display: block ; height: 0px ; position: relative&quot;&gt;&lt;/span&gt;&lt;/span&gt;&lt;/span&gt;&lt;/span&gt;&lt;/span&gt;&lt;/span&gt;&lt;span class=&quot;mord cjk_fallback&quot; style=&quot;color: rgb(50 , 55 , 63) ; font-family: &amp;#34;katex_main&amp;#34; , &amp;#34;times new roman&amp;#34; , serif ; text-align: left ; background-color: rgb(255 , 255 , 255)&quot;&gt;，&lt;/span&gt;&lt;span class=&quot;mord&quot; style=&quot;color: rgb(50 , 55 , 63) ; font-family: &amp;#34;katex_main&amp;#34; , &amp;#34;times new roman&amp;#34; , serif ; text-align: left ; background-color: rgb(255 , 255 , 255)&quot;&gt;&lt;span class=&quot;mord mathcal&quot; style=&quot;font-family: &amp;#34;katex_caligraphic&amp;#34;&quot;&gt;M&lt;/span&gt;&lt;/span&gt;&lt;span class=&quot;mord cjk_fallback&quot; style=&quot;color: rgb(50 , 55 , 63) ; font-family: &amp;#34;katex_main&amp;#34; , &amp;#34;times new roman&amp;#34; , serif ; text-align: left ; background-color: rgb(255 , 255 , 255)&quot;&gt;，&lt;/span&gt;&lt;span class=&quot;mord&quot; style=&quot;color: rgb(50 , 55 , 63) ; font-family: &amp;#34;katex_main&amp;#34; , &amp;#34;times new roman&amp;#34; , serif ; text-align: left ; background-color: rgb(255 , 255 , 255)&quot;&gt;&lt;span class=&quot;mord&quot;&gt;&lt;span class=&quot;mord mathcal&quot; style=&quot;font-family: &amp;#34;katex_caligraphic&amp;#34; ; margin-right: 0.08222em&quot;&gt;V&lt;/span&gt;&lt;/span&gt;&lt;span class=&quot;msupsub&quot;&gt;&lt;span class=&quot;vlist-t vlist-t2&quot; style=&quot;display: inline-table ; table-layout: fixed ; border-collapse: collapse ; margin-right: -2px&quot;&gt;&lt;span class=&quot;vlist-r&quot; style=&quot;display: table-row&quot;&gt;&lt;span class=&quot;vlist&quot; style=&quot;display: table-cell ; vertical-align: bottom ; position: relative ; height: 0.151392em&quot;&gt;&lt;span style=&quot;display: block ; height: 0px ; position: relative ; top: -2.55em ; margin-right: 0.05em&quot;&gt;&lt;span class=&quot;pstrut&quot; style=&quot;display: inline-block ; overflow: hidden ; width: 0px ; height: 2.7em&quot;&gt;&lt;/span&gt;&lt;span class=&quot;sizing reset-size6 size3 mtight&quot; style=&quot;display: inline-block&quot;&gt;&lt;span class=&quot;mord mtight&quot;&gt;&lt;span class=&quot;mord mathnormal mtight&quot; style=&quot;font-family: &amp;#34;katex_math&amp;#34; ; font-style: italic&quot;&gt;m&lt;/span&gt;&lt;/span&gt;&lt;/span&gt;&lt;/span&gt;&lt;/span&gt;&lt;span class=&quot;vlist-s&quot; style=&quot;display: table-cell ; vertical-align: bottom ; width: 2px ; min-width: 2px&quot;&gt;​&lt;/span&gt;&lt;/span&gt;&lt;span class=&quot;vlist-r&quot; style=&quot;display: table-row&quot;&gt;&lt;span class=&quot;vlist&quot; style=&quot;display: table-cell ; vertical-align: bottom ; position: relative ; height: 0.15em&quot;&gt;&lt;span style=&quot;display: block ; height: 0px ; position: relative&quot;&gt;&lt;/span&gt;&lt;/span&gt;&lt;/span&gt;&lt;/span&gt;&lt;/span&gt;&lt;/span&gt;&lt;span class=&quot;mord cjk_fallback&quot; style=&quot;color: rgb(50 , 55 , 63) ; font-family: &amp;#34;katex_main&amp;#34; , &amp;#34;times new roman&amp;#34; , serif ; text-align: left ; background-color: rgb(255 , 255 , 255)&quot;&gt;，&lt;/span&gt;&lt;span class=&quot;mord cjk_fallback&quot; style=&quot;color: rgb(50 , 55 , 63) ; font-family: &amp;#34;katex_main&amp;#34; , &amp;#34;times new roman&amp;#34; , serif ; text-align: left ; background-color: rgb(255 , 255 , 255)&quot;&gt;模&lt;/span&gt;&lt;span class=&quot;mord cjk_fallback&quot; style=&quot;color: rgb(50 , 55 , 63) ; font-family: &amp;#34;katex_main&amp;#34; , &amp;#34;times new roman&amp;#34; , serif ; text-align: left ; background-color: rgb(255 , 255 , 255)&quot;&gt;型&lt;/span&gt;&lt;span class=&quot;mord cjk_fallback&quot; style=&quot;color: rgb(50 , 55 , 63) ; font-family: &amp;#34;katex_main&amp;#34; , &amp;#34;times new roman&amp;#34; , serif ; text-align: left ; background-color: rgb(255 , 255 , 255)&quot;&gt;参&lt;/span&gt;&lt;span class=&quot;mord cjk_fallback&quot; style=&quot;color: rgb(50 , 55 , 63) ; font-family: &amp;#34;katex_main&amp;#34; , &amp;#34;times new roman&amp;#34; , serif ; text-align: left ; background-color: rgb(255 , 255 , 255)&quot;&gt;数&lt;/span&gt;&lt;/font&gt;" style="shape=parallelogram;html=1;strokeWidth=2;perimeter=parallelogramPerimeter;whiteSpace=wrap;rounded=1;arcSize=12;size=0.23;" vertex="1" parent="Bj3Hy20XeD-8B7DW6OU9-11">
          <mxGeometry width="300" height="50" as="geometry" />
        </mxCell>
        <mxCell id="Bj3Hy20XeD-8B7DW6OU9-18" style="edgeStyle=orthogonalEdgeStyle;rounded=0;orthogonalLoop=1;jettySize=auto;html=1;exitX=0.5;exitY=1;exitDx=0;exitDy=0;entryX=0.5;entryY=0;entryDx=0;entryDy=0;" edge="1" parent="1" source="Bj3Hy20XeD-8B7DW6OU9-13">
          <mxGeometry relative="1" as="geometry">
            <mxPoint x="315" y="250" as="targetPoint" />
          </mxGeometry>
        </mxCell>
        <mxCell id="Bj3Hy20XeD-8B7DW6OU9-13" value="初始化种群P0" style="rounded=0;whiteSpace=wrap;html=1;" vertex="1" parent="1">
          <mxGeometry x="255" y="190" width="120" height="40" as="geometry" />
        </mxCell>
        <mxCell id="Bj3Hy20XeD-8B7DW6OU9-14" style="edgeStyle=orthogonalEdgeStyle;rounded=0;orthogonalLoop=1;jettySize=auto;html=1;exitX=0.5;exitY=1;exitDx=0;exitDy=0;" edge="1" parent="1" source="Bj3Hy20XeD-8B7DW6OU9-13" target="Bj3Hy20XeD-8B7DW6OU9-13">
          <mxGeometry relative="1" as="geometry" />
        </mxCell>
        <mxCell id="Bj3Hy20XeD-8B7DW6OU9-15" style="edgeStyle=orthogonalEdgeStyle;rounded=0;orthogonalLoop=1;jettySize=auto;html=1;exitX=0.5;exitY=1;exitDx=0;exitDy=0;entryX=0.5;entryY=0;entryDx=0;entryDy=0;" edge="1" parent="1" source="Bj3Hy20XeD-8B7DW6OU9-9" target="Bj3Hy20XeD-8B7DW6OU9-13">
          <mxGeometry relative="1" as="geometry" />
        </mxCell>
        <mxCell id="Bj3Hy20XeD-8B7DW6OU9-23" style="edgeStyle=orthogonalEdgeStyle;rounded=0;orthogonalLoop=1;jettySize=auto;html=1;exitX=0.5;exitY=1;exitDx=0;exitDy=0;entryX=0.5;entryY=0;entryDx=0;entryDy=0;" edge="1" parent="1" source="Bj3Hy20XeD-8B7DW6OU9-19" target="Bj3Hy20XeD-8B7DW6OU9-25">
          <mxGeometry relative="1" as="geometry">
            <mxPoint x="315" y="310" as="targetPoint" />
          </mxGeometry>
        </mxCell>
        <mxCell id="Bj3Hy20XeD-8B7DW6OU9-19" value="g=0" style="rounded=0;whiteSpace=wrap;html=1;" vertex="1" parent="1">
          <mxGeometry x="255" y="250" width="120" height="30" as="geometry" />
        </mxCell>
        <mxCell id="Bj3Hy20XeD-8B7DW6OU9-30" style="edgeStyle=orthogonalEdgeStyle;rounded=0;orthogonalLoop=1;jettySize=auto;html=1;exitX=0.5;exitY=1;exitDx=0;exitDy=0;entryX=0.5;entryY=0;entryDx=0;entryDy=0;" edge="1" parent="1" source="Bj3Hy20XeD-8B7DW6OU9-24" target="Bj3Hy20XeD-8B7DW6OU9-29">
          <mxGeometry relative="1" as="geometry" />
        </mxCell>
        <mxCell id="Bj3Hy20XeD-8B7DW6OU9-24" value="&lt;font style=&quot;font-size: 12px&quot;&gt;&lt;span class=&quot;mord cjk_fallback&quot; style=&quot;color: rgb(50 , 55 , 63) ; font-family: &amp;#34;katex_main&amp;#34; , &amp;#34;times new roman&amp;#34; , serif ; text-align: left ; background-color: rgb(255 , 255 , 255)&quot;&gt;随&lt;/span&gt;&lt;span class=&quot;mord cjk_fallback&quot; style=&quot;color: rgb(50 , 55 , 63) ; font-family: &amp;#34;katex_main&amp;#34; , &amp;#34;times new roman&amp;#34; , serif ; text-align: left ; background-color: rgb(255 , 255 , 255)&quot;&gt;机&lt;/span&gt;&lt;span class=&quot;mord cjk_fallback&quot; style=&quot;color: rgb(50 , 55 , 63) ; font-family: &amp;#34;katex_main&amp;#34; , &amp;#34;times new roman&amp;#34; , serif ; text-align: left ; background-color: rgb(255 , 255 , 255)&quot;&gt;选&lt;/span&gt;&lt;span class=&quot;mord cjk_fallback&quot; style=&quot;color: rgb(50 , 55 , 63) ; font-family: &amp;#34;katex_main&amp;#34; , &amp;#34;times new roman&amp;#34; , serif ; text-align: left ; background-color: rgb(255 , 255 , 255)&quot;&gt;择&lt;/span&gt;&lt;span class=&quot;mord cjk_fallback&quot; style=&quot;color: rgb(50 , 55 , 63) ; font-family: &amp;#34;katex_main&amp;#34; , &amp;#34;times new roman&amp;#34; , serif ; text-align: left ; background-color: rgb(255 , 255 , 255)&quot;&gt;两&lt;/span&gt;&lt;span class=&quot;mord cjk_fallback&quot; style=&quot;color: rgb(50 , 55 , 63) ; font-family: &amp;#34;katex_main&amp;#34; , &amp;#34;times new roman&amp;#34; , serif ; text-align: left ; background-color: rgb(255 , 255 , 255)&quot;&gt;个&lt;/span&gt;&lt;span class=&quot;mord cjk_fallback&quot; style=&quot;color: rgb(50 , 55 , 63) ; font-family: &amp;#34;katex_main&amp;#34; , &amp;#34;times new roman&amp;#34; , serif ; text-align: left ; background-color: rgb(255 , 255 , 255)&quot;&gt;博&lt;/span&gt;&lt;span class=&quot;mord cjk_fallback&quot; style=&quot;color: rgb(50 , 55 , 63) ; font-family: &amp;#34;katex_main&amp;#34; , &amp;#34;times new roman&amp;#34; , serif ; text-align: left ; background-color: rgb(255 , 255 , 255)&quot;&gt;弈&lt;/span&gt;&lt;span class=&quot;mord cjk_fallback&quot; style=&quot;color: rgb(50 , 55 , 63) ; font-family: &amp;#34;katex_main&amp;#34; , &amp;#34;times new roman&amp;#34; , serif ; text-align: left ; background-color: rgb(255 , 255 , 255)&quot;&gt;主&lt;/span&gt;&lt;span class=&quot;mord cjk_fallback&quot; style=&quot;color: rgb(50 , 55 , 63) ; font-family: &amp;#34;katex_main&amp;#34; , &amp;#34;times new roman&amp;#34; , serif ; text-align: left ; background-color: rgb(255 , 255 , 255)&quot;&gt;体&lt;/span&gt;&lt;span class=&quot;mspace&quot; style=&quot;display: inline-block ; color: rgb(50 , 55 , 63) ; font-family: &amp;#34;katex_main&amp;#34; , &amp;#34;times new roman&amp;#34; , serif ; text-align: left ; background-color: rgb(255 , 255 , 255) ; margin-right: 1em&quot;&gt;&lt;/span&gt;&lt;span class=&quot;mopen&quot; style=&quot;color: rgb(50 , 55 , 63) ; font-family: &amp;#34;katex_main&amp;#34; , &amp;#34;times new roman&amp;#34; , serif ; text-align: left ; background-color: rgb(255 , 255 , 255)&quot;&gt;{&lt;/span&gt;&lt;span class=&quot;mord mathnormal&quot; style=&quot;font-family: &amp;#34;katex_math&amp;#34; ; color: rgb(50 , 55 , 63) ; text-align: left ; background-color: rgb(255 , 255 , 255)&quot;&gt;p&lt;/span&gt;&lt;span class=&quot;mord&quot; style=&quot;color: rgb(50 , 55 , 63) ; font-family: &amp;#34;katex_main&amp;#34; , &amp;#34;times new roman&amp;#34; , serif ; text-align: left ; background-color: rgb(255 , 255 , 255)&quot;&gt;1&lt;/span&gt;&lt;span class=&quot;mpunct&quot; style=&quot;color: rgb(50 , 55 , 63) ; font-family: &amp;#34;katex_main&amp;#34; , &amp;#34;times new roman&amp;#34; , serif ; text-align: left ; background-color: rgb(255 , 255 , 255)&quot;&gt;,&lt;/span&gt;&lt;span class=&quot;mspace&quot; style=&quot;display: inline-block ; color: rgb(50 , 55 , 63) ; font-family: &amp;#34;katex_main&amp;#34; , &amp;#34;times new roman&amp;#34; , serif ; text-align: left ; background-color: rgb(255 , 255 , 255) ; margin-right: 0.166667em&quot;&gt;&lt;/span&gt;&lt;span class=&quot;mord mathnormal&quot; style=&quot;font-family: &amp;#34;katex_math&amp;#34; ; color: rgb(50 , 55 , 63) ; text-align: left ; background-color: rgb(255 , 255 , 255)&quot;&gt;p&lt;/span&gt;&lt;span class=&quot;mord&quot; style=&quot;color: rgb(50 , 55 , 63) ; font-family: &amp;#34;katex_main&amp;#34; , &amp;#34;times new roman&amp;#34; , serif ; text-align: left ; background-color: rgb(255 , 255 , 255)&quot;&gt;2&lt;/span&gt;&lt;span class=&quot;mclose&quot; style=&quot;color: rgb(50 , 55 , 63) ; font-family: &amp;#34;katex_main&amp;#34; , &amp;#34;times new roman&amp;#34; , serif ; text-align: left ; background-color: rgb(255 , 255 , 255)&quot;&gt;}&lt;/span&gt;&lt;span class=&quot;mspace&quot; style=&quot;display: inline-block ; color: rgb(50 , 55 , 63) ; font-family: &amp;#34;katex_main&amp;#34; , &amp;#34;times new roman&amp;#34; , serif ; text-align: left ; background-color: rgb(255 , 255 , 255) ; margin-right: 0.277778em&quot;&gt;&lt;/span&gt;&lt;span class=&quot;mrel&quot; style=&quot;color: rgb(50 , 55 , 63) ; font-family: &amp;#34;katex_main&amp;#34; , &amp;#34;times new roman&amp;#34; , serif ; text-align: left ; background-color: rgb(255 , 255 , 255)&quot;&gt;=&lt;/span&gt;&lt;span class=&quot;mspace&quot; style=&quot;display: inline-block ; color: rgb(50 , 55 , 63) ; font-family: &amp;#34;katex_main&amp;#34; , &amp;#34;times new roman&amp;#34; , serif ; text-align: left ; background-color: rgb(255 , 255 , 255) ; margin-right: 0.277778em&quot;&gt;&lt;/span&gt;&lt;span class=&quot;mord mathnormal&quot; style=&quot;font-family: &amp;#34;katex_math&amp;#34; ; color: rgb(50 , 55 , 63) ; text-align: left ; background-color: rgb(255 , 255 , 255) ; margin-right: 0.02778em&quot;&gt;r&lt;/span&gt;&lt;span class=&quot;mord mathnormal&quot; style=&quot;font-family: &amp;#34;katex_math&amp;#34; ; color: rgb(50 , 55 , 63) ; text-align: left ; background-color: rgb(255 , 255 , 255)&quot;&gt;a&lt;/span&gt;&lt;span class=&quot;mord mathnormal&quot; style=&quot;font-family: &amp;#34;katex_math&amp;#34; ; color: rgb(50 , 55 , 63) ; text-align: left ; background-color: rgb(255 , 255 , 255)&quot;&gt;n&lt;/span&gt;&lt;span class=&quot;mord mathnormal&quot; style=&quot;font-family: &amp;#34;katex_math&amp;#34; ; color: rgb(50 , 55 , 63) ; text-align: left ; background-color: rgb(255 , 255 , 255)&quot;&gt;d&lt;/span&gt;&lt;span class=&quot;mord mathnormal&quot; style=&quot;font-family: &amp;#34;katex_math&amp;#34; ; color: rgb(50 , 55 , 63) ; text-align: left ; background-color: rgb(255 , 255 , 255)&quot;&gt;o&lt;/span&gt;&lt;span class=&quot;mord mathnormal&quot; style=&quot;font-family: &amp;#34;katex_math&amp;#34; ; color: rgb(50 , 55 , 63) ; text-align: left ; background-color: rgb(255 , 255 , 255)&quot;&gt;m&lt;/span&gt;&lt;span class=&quot;mord mathnormal&quot; style=&quot;font-family: &amp;#34;katex_math&amp;#34; ; color: rgb(50 , 55 , 63) ; text-align: left ; background-color: rgb(255 , 255 , 255) ; margin-right: 0.05764em&quot;&gt;S&lt;/span&gt;&lt;span class=&quot;mord mathnormal&quot; style=&quot;font-family: &amp;#34;katex_math&amp;#34; ; color: rgb(50 , 55 , 63) ; text-align: left ; background-color: rgb(255 , 255 , 255)&quot;&gt;e&lt;/span&gt;&lt;span class=&quot;mord mathnormal&quot; style=&quot;font-family: &amp;#34;katex_math&amp;#34; ; color: rgb(50 , 55 , 63) ; text-align: left ; background-color: rgb(255 , 255 , 255) ; margin-right: 0.01968em&quot;&gt;l&lt;/span&gt;&lt;span class=&quot;mord mathnormal&quot; style=&quot;font-family: &amp;#34;katex_math&amp;#34; ; color: rgb(50 , 55 , 63) ; text-align: left ; background-color: rgb(255 , 255 , 255)&quot;&gt;e&lt;/span&gt;&lt;span class=&quot;mord mathnormal&quot; style=&quot;font-family: &amp;#34;katex_math&amp;#34; ; color: rgb(50 , 55 , 63) ; text-align: left ; background-color: rgb(255 , 255 , 255)&quot;&gt;c&lt;/span&gt;&lt;span class=&quot;mord mathnormal&quot; style=&quot;font-family: &amp;#34;katex_math&amp;#34; ; color: rgb(50 , 55 , 63) ; text-align: left ; background-color: rgb(255 , 255 , 255)&quot;&gt;t&lt;/span&gt;&lt;span class=&quot;mopen&quot; style=&quot;color: rgb(50 , 55 , 63) ; font-family: &amp;#34;katex_main&amp;#34; , &amp;#34;times new roman&amp;#34; , serif ; text-align: left ; background-color: rgb(255 , 255 , 255)&quot;&gt;(&lt;/span&gt;&lt;span class=&quot;mord&quot; style=&quot;color: rgb(50 , 55 , 63) ; font-family: &amp;#34;katex_main&amp;#34; , &amp;#34;times new roman&amp;#34; , serif ; text-align: left ; background-color: rgb(255 , 255 , 255)&quot;&gt;&lt;span class=&quot;mord&quot;&gt;&lt;span class=&quot;mord mathcal&quot; style=&quot;font-family: &amp;#34;katex_caligraphic&amp;#34; ; margin-right: 0.08222em&quot;&gt;P&lt;/span&gt;&lt;/span&gt;&lt;span class=&quot;msupsub&quot;&gt;&lt;span class=&quot;vlist-t vlist-t2&quot; style=&quot;display: inline-table ; table-layout: fixed ; border-collapse: collapse ; margin-right: -2px&quot;&gt;&lt;span class=&quot;vlist-r&quot; style=&quot;display: table-row&quot;&gt;&lt;span class=&quot;vlist&quot; style=&quot;display: table-cell ; vertical-align: bottom ; position: relative ; height: 0.151392em&quot;&gt;&lt;span style=&quot;display: block ; height: 0px ; position: relative ; top: -2.55em ; margin-right: 0.05em&quot;&gt;&lt;span class=&quot;pstrut&quot; style=&quot;display: inline-block ; overflow: hidden ; width: 0px ; height: 2.7em&quot;&gt;&lt;/span&gt;&lt;span class=&quot;sizing reset-size6 size3 mtight&quot; style=&quot;display: inline-block&quot;&gt;&lt;span class=&quot;mord mtight&quot;&gt;&lt;span class=&quot;mord mathnormal mtight&quot; style=&quot;font-family: &amp;#34;katex_math&amp;#34; ; margin-right: 0.03588em&quot;&gt;g&lt;/span&gt;&lt;/span&gt;&lt;/span&gt;&lt;/span&gt;&lt;/span&gt;&lt;span class=&quot;vlist-s&quot; style=&quot;display: table-cell ; vertical-align: bottom ; width: 2px ; min-width: 2px&quot;&gt;​&lt;/span&gt;&lt;/span&gt;&lt;span class=&quot;vlist-r&quot; style=&quot;display: table-row&quot;&gt;&lt;span class=&quot;vlist&quot; style=&quot;display: table-cell ; vertical-align: bottom ; position: relative ; height: 0.286108em&quot;&gt;&lt;span style=&quot;display: block ; height: 0px ; position: relative&quot;&gt;&lt;/span&gt;&lt;/span&gt;&lt;/span&gt;&lt;/span&gt;&lt;/span&gt;&lt;/span&gt;&lt;span class=&quot;mclose&quot; style=&quot;color: rgb(50 , 55 , 63) ; font-family: &amp;#34;katex_main&amp;#34; , &amp;#34;times new roman&amp;#34; , serif ; text-align: left ; background-color: rgb(255 , 255 , 255)&quot;&gt;)&lt;/span&gt;&lt;/font&gt;" style="rounded=0;whiteSpace=wrap;html=1;" vertex="1" parent="1">
          <mxGeometry x="150" y="350" width="330" height="40" as="geometry" />
        </mxCell>
        <mxCell id="Bj3Hy20XeD-8B7DW6OU9-27" style="edgeStyle=orthogonalEdgeStyle;rounded=0;orthogonalLoop=1;jettySize=auto;html=1;exitX=0.5;exitY=1;exitDx=0;exitDy=0;entryX=0.5;entryY=0;entryDx=0;entryDy=0;" edge="1" parent="1" source="Bj3Hy20XeD-8B7DW6OU9-25" target="Bj3Hy20XeD-8B7DW6OU9-24">
          <mxGeometry relative="1" as="geometry" />
        </mxCell>
        <mxCell id="Bj3Hy20XeD-8B7DW6OU9-25" value="&lt;font style=&quot;font-size: 12px&quot;&gt;&lt;span class=&quot;mord&quot; style=&quot;color: rgb(50 , 55 , 63) ; font-family: &amp;#34;katex_main&amp;#34; , &amp;#34;times new roman&amp;#34; , serif ; text-align: left ; background-color: rgb(255 , 255 , 255)&quot;&gt;&lt;span class=&quot;mord&quot;&gt;&lt;span class=&quot;mord mathcal&quot; style=&quot;font-family: &amp;#34;katex_caligraphic&amp;#34; ; margin-right: 0.08222em&quot;&gt;P&lt;/span&gt;&lt;/span&gt;&lt;span class=&quot;msupsub&quot;&gt;&lt;span class=&quot;vlist-t vlist-t2&quot; style=&quot;display: inline-table ; table-layout: fixed ; border-collapse: collapse ; margin-right: -2px&quot;&gt;&lt;span class=&quot;vlist-r&quot; style=&quot;display: table-row&quot;&gt;&lt;span class=&quot;vlist&quot; style=&quot;display: table-cell ; vertical-align: bottom ; position: relative ; height: 0.280556em&quot;&gt;&lt;span style=&quot;display: block ; height: 0px ; position: relative ; top: -2.55em ; margin-right: 0.05em&quot;&gt;&lt;span class=&quot;pstrut&quot; style=&quot;display: inline-block ; overflow: hidden ; width: 0px ; height: 2.7em&quot;&gt;&lt;/span&gt;&lt;span class=&quot;sizing reset-size6 size3 mtight&quot; style=&quot;display: inline-block&quot;&gt;&lt;span class=&quot;mord mtight&quot;&gt;&lt;span class=&quot;mord mathnormal mtight&quot; style=&quot;font-family: &amp;#34;katex_math&amp;#34; ; font-style: italic&quot;&gt;t&lt;/span&gt;&lt;span class=&quot;mord mathnormal mtight&quot; style=&quot;font-family: &amp;#34;katex_math&amp;#34; ; font-style: italic&quot;&gt;e&lt;/span&gt;&lt;span class=&quot;mord mathnormal mtight&quot; style=&quot;font-family: &amp;#34;katex_math&amp;#34; ; font-style: italic&quot;&gt;m&lt;/span&gt;&lt;span class=&quot;mord mathnormal mtight&quot; style=&quot;font-family: &amp;#34;katex_math&amp;#34; ; font-style: italic&quot;&gt;p&lt;/span&gt;&lt;/span&gt;&lt;/span&gt;&lt;/span&gt;&lt;/span&gt;&lt;span class=&quot;vlist-s&quot; style=&quot;display: table-cell ; vertical-align: bottom ; width: 2px ; min-width: 2px&quot;&gt;​&lt;/span&gt;&lt;/span&gt;&lt;span class=&quot;vlist-r&quot; style=&quot;display: table-row&quot;&gt;&lt;span class=&quot;vlist&quot; style=&quot;display: table-cell ; vertical-align: bottom ; position: relative ; height: 0.286108em&quot;&gt;&lt;span style=&quot;display: block ; height: 0px ; position: relative&quot;&gt;&lt;/span&gt;&lt;/span&gt;&lt;/span&gt;&lt;/span&gt;&lt;/span&gt;&lt;/span&gt;&lt;span class=&quot;mspace&quot; style=&quot;display: inline-block ; color: rgb(50 , 55 , 63) ; font-family: &amp;#34;katex_main&amp;#34; , &amp;#34;times new roman&amp;#34; , serif ; text-align: left ; background-color: rgb(255 , 255 , 255) ; margin-right: 0.277778em&quot;&gt;&lt;/span&gt;&lt;span class=&quot;mrel&quot; style=&quot;color: rgb(50 , 55 , 63) ; font-family: &amp;#34;katex_main&amp;#34; , &amp;#34;times new roman&amp;#34; , serif ; text-align: left ; background-color: rgb(255 , 255 , 255)&quot;&gt;=&lt;/span&gt;&lt;span class=&quot;mspace&quot; style=&quot;display: inline-block ; color: rgb(50 , 55 , 63) ; font-family: &amp;#34;katex_main&amp;#34; , &amp;#34;times new roman&amp;#34; , serif ; text-align: left ; background-color: rgb(255 , 255 , 255) ; margin-right: 0.277778em&quot;&gt;&lt;/span&gt;&lt;span class=&quot;mord&quot; style=&quot;color: rgb(50 , 55 , 63) ; font-family: &amp;#34;katex_main&amp;#34; , &amp;#34;times new roman&amp;#34; , serif ; text-align: left ; background-color: rgb(255 , 255 , 255)&quot;&gt;∅&lt;/span&gt;&lt;/font&gt;" style="whiteSpace=wrap;html=1;" vertex="1" parent="1">
          <mxGeometry x="255" y="300" width="120" height="30" as="geometry" />
        </mxCell>
        <mxCell id="Bj3Hy20XeD-8B7DW6OU9-34" value="" style="edgeStyle=orthogonalEdgeStyle;rounded=0;orthogonalLoop=1;jettySize=auto;html=1;" edge="1" parent="1" source="Bj3Hy20XeD-8B7DW6OU9-29" target="Bj3Hy20XeD-8B7DW6OU9-33">
          <mxGeometry relative="1" as="geometry" />
        </mxCell>
        <mxCell id="Bj3Hy20XeD-8B7DW6OU9-29" value="&lt;span class=&quot;mord&quot; style=&quot;color: rgb(50 , 55 , 63) ; font-family: &amp;#34;katex_main&amp;#34; , &amp;#34;times new roman&amp;#34; , serif ; text-align: left ; background-color: rgb(255 , 255 , 255)&quot;&gt;&lt;span class=&quot;mord&quot;&gt;&lt;span class=&quot;mord mathcal&quot; style=&quot;font-family: &amp;#34;katex_caligraphic&amp;#34; ; margin-right: 0.08222em&quot;&gt;P&lt;/span&gt;&lt;/span&gt;&lt;span class=&quot;msupsub&quot;&gt;&lt;span class=&quot;vlist-t vlist-t2&quot; style=&quot;display: inline-table ; table-layout: fixed ; border-collapse: collapse ; margin-right: -2px&quot;&gt;&lt;span class=&quot;vlist-r&quot; style=&quot;display: table-row&quot;&gt;&lt;span class=&quot;vlist&quot; style=&quot;display: table-cell ; vertical-align: bottom ; position: relative ; height: 0.151392em&quot;&gt;&lt;span style=&quot;display: block ; height: 0px ; position: relative ; top: -2.55em ; margin-right: 0.05em&quot;&gt;&lt;span class=&quot;pstrut&quot; style=&quot;display: inline-block ; overflow: hidden ; width: 0px ; height: 2.7em&quot;&gt;&lt;/span&gt;&lt;span class=&quot;sizing reset-size6 size3 mtight&quot; style=&quot;display: inline-block&quot;&gt;&lt;span class=&quot;mord mtight&quot;&gt;&lt;span class=&quot;mord mathnormal mtight&quot; style=&quot;font-family: &amp;#34;katex_math&amp;#34; ; font-style: italic ; margin-right: 0.03588em&quot;&gt;g&lt;/span&gt;&lt;/span&gt;&lt;/span&gt;&lt;/span&gt;&lt;/span&gt;&lt;span class=&quot;vlist-s&quot; style=&quot;display: table-cell ; vertical-align: bottom ; width: 2px ; min-width: 2px&quot;&gt;​&lt;/span&gt;&lt;/span&gt;&lt;span class=&quot;vlist-r&quot; style=&quot;display: table-row&quot;&gt;&lt;span class=&quot;vlist&quot; style=&quot;display: table-cell ; vertical-align: bottom ; position: relative ; height: 0.286108em&quot;&gt;&lt;span style=&quot;display: block ; height: 0px ; position: relative&quot;&gt;&lt;/span&gt;&lt;/span&gt;&lt;/span&gt;&lt;/span&gt;&lt;/span&gt;&lt;/span&gt;&lt;span class=&quot;mspace&quot; style=&quot;color: rgb(50 , 55 , 63) ; font-family: &amp;#34;katex_main&amp;#34; , &amp;#34;times new roman&amp;#34; , serif ; text-align: left ; background-color: rgb(255 , 255 , 255) ; display: inline-block ; margin-right: 0.277778em&quot;&gt;&lt;/span&gt;&lt;span class=&quot;mrel&quot; style=&quot;color: rgb(50 , 55 , 63) ; font-family: &amp;#34;katex_main&amp;#34; , &amp;#34;times new roman&amp;#34; , serif ; text-align: left ; background-color: rgb(255 , 255 , 255)&quot;&gt;=&lt;/span&gt;&lt;span class=&quot;mspace&quot; style=&quot;color: rgb(50 , 55 , 63) ; font-family: &amp;#34;katex_main&amp;#34; , &amp;#34;times new roman&amp;#34; , serif ; text-align: left ; background-color: rgb(255 , 255 , 255) ; display: inline-block ; margin-right: 0.277778em&quot;&gt;&lt;/span&gt;&lt;span class=&quot;mord&quot; style=&quot;color: rgb(50 , 55 , 63) ; font-family: &amp;#34;katex_main&amp;#34; , &amp;#34;times new roman&amp;#34; , serif ; text-align: left ; background-color: rgb(255 , 255 , 255)&quot;&gt;&lt;span class=&quot;mord&quot;&gt;&lt;span class=&quot;mord mathcal&quot; style=&quot;font-family: &amp;#34;katex_caligraphic&amp;#34; ; margin-right: 0.08222em&quot;&gt;P&lt;/span&gt;&lt;/span&gt;&lt;span class=&quot;msupsub&quot;&gt;&lt;span class=&quot;vlist-t vlist-t2&quot; style=&quot;display: inline-table ; table-layout: fixed ; border-collapse: collapse ; margin-right: -2px&quot;&gt;&lt;span class=&quot;vlist-r&quot; style=&quot;display: table-row&quot;&gt;&lt;span class=&quot;vlist&quot; style=&quot;display: table-cell ; vertical-align: bottom ; position: relative ; height: 0.151392em&quot;&gt;&lt;span style=&quot;display: block ; height: 0px ; position: relative ; top: -2.55em ; margin-right: 0.05em&quot;&gt;&lt;span class=&quot;pstrut&quot; style=&quot;display: inline-block ; overflow: hidden ; width: 0px ; height: 2.7em&quot;&gt;&lt;/span&gt;&lt;span class=&quot;sizing reset-size6 size3 mtight&quot; style=&quot;display: inline-block&quot;&gt;&lt;span class=&quot;mord mtight&quot;&gt;&lt;span class=&quot;mord mathnormal mtight&quot; style=&quot;font-family: &amp;#34;katex_math&amp;#34; ; font-style: italic ; margin-right: 0.03588em&quot;&gt;g&lt;/span&gt;&lt;/span&gt;&lt;/span&gt;&lt;/span&gt;&lt;/span&gt;&lt;span class=&quot;vlist-s&quot; style=&quot;display: table-cell ; vertical-align: bottom ; width: 2px ; min-width: 2px&quot;&gt;​&lt;/span&gt;&lt;/span&gt;&lt;span class=&quot;vlist-r&quot; style=&quot;display: table-row&quot;&gt;&lt;span class=&quot;vlist&quot; style=&quot;display: table-cell ; vertical-align: bottom ; position: relative ; height: 0.286108em&quot;&gt;&lt;span style=&quot;display: block ; height: 0px ; position: relative&quot;&gt;&lt;/span&gt;&lt;/span&gt;&lt;/span&gt;&lt;/span&gt;&lt;/span&gt;&lt;/span&gt;&lt;span class=&quot;mspace&quot; style=&quot;color: rgb(50 , 55 , 63) ; font-family: &amp;#34;katex_main&amp;#34; , &amp;#34;times new roman&amp;#34; , serif ; text-align: left ; background-color: rgb(255 , 255 , 255) ; display: inline-block ; margin-right: 0.222222em&quot;&gt;&lt;/span&gt;&lt;span class=&quot;mbin&quot; style=&quot;color: rgb(50 , 55 , 63) ; font-family: &amp;#34;katex_main&amp;#34; , &amp;#34;times new roman&amp;#34; , serif ; text-align: left ; background-color: rgb(255 , 255 , 255)&quot;&gt;∖&lt;/span&gt;&lt;span class=&quot;mspace&quot; style=&quot;color: rgb(50 , 55 , 63) ; font-family: &amp;#34;katex_main&amp;#34; , &amp;#34;times new roman&amp;#34; , serif ; text-align: left ; background-color: rgb(255 , 255 , 255) ; display: inline-block ; margin-right: 0.222222em&quot;&gt;&lt;/span&gt;&lt;span class=&quot;mopen&quot; style=&quot;color: rgb(50 , 55 , 63) ; font-family: &amp;#34;katex_main&amp;#34; , &amp;#34;times new roman&amp;#34; , serif ; text-align: left ; background-color: rgb(255 , 255 , 255)&quot;&gt;{&lt;/span&gt;&lt;span class=&quot;mord mathnormal&quot; style=&quot;color: rgb(50 , 55 , 63) ; text-align: left ; background-color: rgb(255 , 255 , 255) ; font-family: &amp;#34;katex_math&amp;#34; ; font-style: italic&quot;&gt;p&lt;/span&gt;&lt;span class=&quot;mord&quot; style=&quot;color: rgb(50 , 55 , 63) ; font-family: &amp;#34;katex_main&amp;#34; , &amp;#34;times new roman&amp;#34; , serif ; text-align: left ; background-color: rgb(255 , 255 , 255)&quot;&gt;1&lt;/span&gt;&lt;span class=&quot;mpunct&quot; style=&quot;color: rgb(50 , 55 , 63) ; font-family: &amp;#34;katex_main&amp;#34; , &amp;#34;times new roman&amp;#34; , serif ; text-align: left ; background-color: rgb(255 , 255 , 255)&quot;&gt;,&lt;/span&gt;&lt;span class=&quot;mspace&quot; style=&quot;color: rgb(50 , 55 , 63) ; font-family: &amp;#34;katex_main&amp;#34; , &amp;#34;times new roman&amp;#34; , serif ; text-align: left ; background-color: rgb(255 , 255 , 255) ; display: inline-block ; margin-right: 0.166667em&quot;&gt;&lt;/span&gt;&lt;span class=&quot;mord mathnormal&quot; style=&quot;color: rgb(50 , 55 , 63) ; text-align: left ; background-color: rgb(255 , 255 , 255) ; font-family: &amp;#34;katex_math&amp;#34; ; font-style: italic&quot;&gt;p&lt;/span&gt;&lt;span class=&quot;mord&quot; style=&quot;color: rgb(50 , 55 , 63) ; font-family: &amp;#34;katex_main&amp;#34; , &amp;#34;times new roman&amp;#34; , serif ; text-align: left ; background-color: rgb(255 , 255 , 255)&quot;&gt;2&lt;/span&gt;&lt;span class=&quot;mclose&quot; style=&quot;color: rgb(50 , 55 , 63) ; font-family: &amp;#34;katex_main&amp;#34; , &amp;#34;times new roman&amp;#34; , serif ; text-align: left ; background-color: rgb(255 , 255 , 255)&quot;&gt;}&lt;/span&gt;" style="rounded=0;whiteSpace=wrap;html=1;" vertex="1" parent="1">
          <mxGeometry x="240" y="410" width="150" height="40" as="geometry" />
        </mxCell>
        <mxCell id="Bj3Hy20XeD-8B7DW6OU9-36" style="edgeStyle=orthogonalEdgeStyle;rounded=0;orthogonalLoop=1;jettySize=auto;html=1;exitX=0.5;exitY=1;exitDx=0;exitDy=0;entryX=0.5;entryY=0;entryDx=0;entryDy=0;" edge="1" parent="1" source="Bj3Hy20XeD-8B7DW6OU9-33" target="Bj3Hy20XeD-8B7DW6OU9-35">
          <mxGeometry relative="1" as="geometry" />
        </mxCell>
        <mxCell id="Bj3Hy20XeD-8B7DW6OU9-33" value="&lt;span class=&quot;mord cjk_fallback&quot; style=&quot;color: rgb(50 , 55 , 63) ; font-family: &amp;#34;katex_main&amp;#34; , &amp;#34;times new roman&amp;#34; , serif ; text-align: left ; background-color: rgb(255 , 255 , 255)&quot;&gt;进&lt;/span&gt;&lt;span class=&quot;mord cjk_fallback&quot; style=&quot;color: rgb(50 , 55 , 63) ; font-family: &amp;#34;katex_main&amp;#34; , &amp;#34;times new roman&amp;#34; , serif ; text-align: left ; background-color: rgb(255 , 255 , 255)&quot;&gt;行&lt;/span&gt;&lt;span class=&quot;mord cjk_fallback&quot; style=&quot;color: rgb(50 , 55 , 63) ; font-family: &amp;#34;katex_main&amp;#34; , &amp;#34;times new roman&amp;#34; , serif ; text-align: left ; background-color: rgb(255 , 255 , 255)&quot;&gt;博&lt;/span&gt;&lt;span class=&quot;mord cjk_fallback&quot; style=&quot;color: rgb(50 , 55 , 63) ; font-family: &amp;#34;katex_main&amp;#34; , &amp;#34;times new roman&amp;#34; , serif ; text-align: left ; background-color: rgb(255 , 255 , 255)&quot;&gt;弈&lt;/span&gt;&lt;span class=&quot;mspace&quot; style=&quot;color: rgb(50 , 55 , 63) ; font-family: &amp;#34;katex_main&amp;#34; , &amp;#34;times new roman&amp;#34; , serif ; text-align: left ; background-color: rgb(255 , 255 , 255) ; display: inline-block ; margin-right: 1em&quot;&gt;&lt;/span&gt;&lt;span class=&quot;mord mathnormal&quot; style=&quot;color: rgb(50 , 55 , 63) ; text-align: left ; background-color: rgb(255 , 255 , 255) ; font-family: &amp;#34;katex_math&amp;#34; ; margin-right: 0.02691em&quot;&gt;w&lt;/span&gt;&lt;span class=&quot;mord mathnormal&quot; style=&quot;color: rgb(50 , 55 , 63) ; text-align: left ; background-color: rgb(255 , 255 , 255) ; font-family: &amp;#34;katex_math&amp;#34;&quot;&gt;i&lt;/span&gt;&lt;span class=&quot;mord mathnormal&quot; style=&quot;color: rgb(50 , 55 , 63) ; text-align: left ; background-color: rgb(255 , 255 , 255) ; font-family: &amp;#34;katex_math&amp;#34;&quot;&gt;n&lt;/span&gt;&lt;span class=&quot;mord mathnormal&quot; style=&quot;color: rgb(50 , 55 , 63) ; text-align: left ; background-color: rgb(255 , 255 , 255) ; font-family: &amp;#34;katex_math&amp;#34;&quot;&gt;n&lt;/span&gt;&lt;span class=&quot;mord mathnormal&quot; style=&quot;color: rgb(50 , 55 , 63) ; text-align: left ; background-color: rgb(255 , 255 , 255) ; font-family: &amp;#34;katex_math&amp;#34;&quot;&gt;e&lt;/span&gt;&lt;span class=&quot;mord mathnormal&quot; style=&quot;color: rgb(50 , 55 , 63) ; text-align: left ; background-color: rgb(255 , 255 , 255) ; font-family: &amp;#34;katex_math&amp;#34; ; margin-right: 0.02778em&quot;&gt;r&lt;/span&gt;&lt;span class=&quot;mspace&quot; style=&quot;color: rgb(50 , 55 , 63) ; font-family: &amp;#34;katex_main&amp;#34; , &amp;#34;times new roman&amp;#34; , serif ; text-align: left ; background-color: rgb(255 , 255 , 255) ; display: inline-block ; margin-right: 0.277778em&quot;&gt;&lt;/span&gt;&lt;span class=&quot;mrel&quot; style=&quot;color: rgb(50 , 55 , 63) ; font-family: &amp;#34;katex_main&amp;#34; , &amp;#34;times new roman&amp;#34; , serif ; text-align: left ; background-color: rgb(255 , 255 , 255)&quot;&gt;=&lt;/span&gt;&lt;span class=&quot;mspace&quot; style=&quot;color: rgb(50 , 55 , 63) ; font-family: &amp;#34;katex_main&amp;#34; , &amp;#34;times new roman&amp;#34; , serif ; text-align: left ; background-color: rgb(255 , 255 , 255) ; display: inline-block ; margin-right: 0.277778em&quot;&gt;&lt;/span&gt;&lt;span class=&quot;mord mathnormal&quot; style=&quot;color: rgb(50 , 55 , 63) ; text-align: left ; background-color: rgb(255 , 255 , 255) ; font-family: &amp;#34;katex_math&amp;#34;&quot;&gt;p&lt;/span&gt;&lt;span class=&quot;mord mathnormal&quot; style=&quot;color: rgb(50 , 55 , 63) ; text-align: left ; background-color: rgb(255 , 255 , 255) ; font-family: &amp;#34;katex_math&amp;#34;&quot;&gt;e&lt;/span&gt;&lt;span class=&quot;mord mathnormal&quot; style=&quot;color: rgb(50 , 55 , 63) ; text-align: left ; background-color: rgb(255 , 255 , 255) ; font-family: &amp;#34;katex_math&amp;#34; ; margin-right: 0.02778em&quot;&gt;r&lt;/span&gt;&lt;span class=&quot;mord mathnormal&quot; style=&quot;color: rgb(50 , 55 , 63) ; text-align: left ; background-color: rgb(255 , 255 , 255) ; font-family: &amp;#34;katex_math&amp;#34; ; margin-right: 0.10764em&quot;&gt;f&lt;/span&gt;&lt;span class=&quot;mord mathnormal&quot; style=&quot;color: rgb(50 , 55 , 63) ; text-align: left ; background-color: rgb(255 , 255 , 255) ; font-family: &amp;#34;katex_math&amp;#34;&quot;&gt;o&lt;/span&gt;&lt;span class=&quot;mord mathnormal&quot; style=&quot;color: rgb(50 , 55 , 63) ; text-align: left ; background-color: rgb(255 , 255 , 255) ; font-family: &amp;#34;katex_math&amp;#34; ; margin-right: 0.02778em&quot;&gt;r&lt;/span&gt;&lt;span class=&quot;mord mathnormal&quot; style=&quot;color: rgb(50 , 55 , 63) ; text-align: left ; background-color: rgb(255 , 255 , 255) ; font-family: &amp;#34;katex_math&amp;#34;&quot;&gt;m&lt;/span&gt;&lt;span class=&quot;mord mathnormal&quot; style=&quot;color: rgb(50 , 55 , 63) ; text-align: left ; background-color: rgb(255 , 255 , 255) ; font-family: &amp;#34;katex_math&amp;#34;&quot;&gt;G&lt;/span&gt;&lt;span class=&quot;mord mathnormal&quot; style=&quot;color: rgb(50 , 55 , 63) ; text-align: left ; background-color: rgb(255 , 255 , 255) ; font-family: &amp;#34;katex_math&amp;#34;&quot;&gt;a&lt;/span&gt;&lt;span class=&quot;mord mathnormal&quot; style=&quot;color: rgb(50 , 55 , 63) ; text-align: left ; background-color: rgb(255 , 255 , 255) ; font-family: &amp;#34;katex_math&amp;#34;&quot;&gt;m&lt;/span&gt;&lt;span class=&quot;mord mathnormal&quot; style=&quot;color: rgb(50 , 55 , 63) ; text-align: left ; background-color: rgb(255 , 255 , 255) ; font-family: &amp;#34;katex_math&amp;#34;&quot;&gt;e&lt;/span&gt;&lt;span class=&quot;mopen&quot; style=&quot;color: rgb(50 , 55 , 63) ; font-family: &amp;#34;katex_main&amp;#34; , &amp;#34;times new roman&amp;#34; , serif ; text-align: left ; background-color: rgb(255 , 255 , 255)&quot;&gt;(&lt;/span&gt;&lt;span class=&quot;mord mathnormal&quot; style=&quot;color: rgb(50 , 55 , 63) ; text-align: left ; background-color: rgb(255 , 255 , 255) ; font-family: &amp;#34;katex_math&amp;#34;&quot;&gt;p&lt;/span&gt;&lt;span class=&quot;mord&quot; style=&quot;color: rgb(50 , 55 , 63) ; font-family: &amp;#34;katex_main&amp;#34; , &amp;#34;times new roman&amp;#34; , serif ; text-align: left ; background-color: rgb(255 , 255 , 255)&quot;&gt;1&lt;/span&gt;&lt;span class=&quot;mpunct&quot; style=&quot;color: rgb(50 , 55 , 63) ; font-family: &amp;#34;katex_main&amp;#34; , &amp;#34;times new roman&amp;#34; , serif ; text-align: left ; background-color: rgb(255 , 255 , 255)&quot;&gt;,&lt;/span&gt;&lt;span class=&quot;mspace&quot; style=&quot;color: rgb(50 , 55 , 63) ; font-family: &amp;#34;katex_main&amp;#34; , &amp;#34;times new roman&amp;#34; , serif ; text-align: left ; background-color: rgb(255 , 255 , 255) ; display: inline-block ; margin-right: 0.166667em&quot;&gt;&lt;/span&gt;&lt;span class=&quot;mord mathnormal&quot; style=&quot;color: rgb(50 , 55 , 63) ; text-align: left ; background-color: rgb(255 , 255 , 255) ; font-family: &amp;#34;katex_math&amp;#34;&quot;&gt;p&lt;/span&gt;&lt;span class=&quot;mord&quot; style=&quot;color: rgb(50 , 55 , 63) ; font-family: &amp;#34;katex_main&amp;#34; , &amp;#34;times new roman&amp;#34; , serif ; text-align: left ; background-color: rgb(255 , 255 , 255)&quot;&gt;2&lt;/span&gt;&lt;span class=&quot;mclose&quot; style=&quot;color: rgb(50 , 55 , 63) ; font-family: &amp;#34;katex_main&amp;#34; , &amp;#34;times new roman&amp;#34; , serif ; text-align: left ; background-color: rgb(255 , 255 , 255)&quot;&gt;)&lt;/span&gt;" style="rounded=0;whiteSpace=wrap;html=1;" vertex="1" parent="1">
          <mxGeometry x="175" y="470" width="280" height="40" as="geometry" />
        </mxCell>
        <mxCell id="Bj3Hy20XeD-8B7DW6OU9-39" style="edgeStyle=orthogonalEdgeStyle;rounded=0;orthogonalLoop=1;jettySize=auto;html=1;exitX=0.5;exitY=1;exitDx=0;exitDy=0;entryX=0.5;entryY=0;entryDx=0;entryDy=0;" edge="1" parent="1" source="Bj3Hy20XeD-8B7DW6OU9-35" target="Bj3Hy20XeD-8B7DW6OU9-37">
          <mxGeometry relative="1" as="geometry" />
        </mxCell>
        <mxCell id="Bj3Hy20XeD-8B7DW6OU9-35" value="失败者复制胜利者的策略 replica = replicate(winner)" style="rounded=0;whiteSpace=wrap;html=1;" vertex="1" parent="1">
          <mxGeometry x="160" y="530" width="310" height="40" as="geometry" />
        </mxCell>
        <mxCell id="Bj3Hy20XeD-8B7DW6OU9-42" style="edgeStyle=orthogonalEdgeStyle;rounded=0;orthogonalLoop=1;jettySize=auto;html=1;exitX=0.5;exitY=1;exitDx=0;exitDy=0;entryX=0.5;entryY=0;entryDx=0;entryDy=0;" edge="1" parent="1" source="Bj3Hy20XeD-8B7DW6OU9-37" target="Bj3Hy20XeD-8B7DW6OU9-40">
          <mxGeometry relative="1" as="geometry" />
        </mxCell>
        <mxCell id="Bj3Hy20XeD-8B7DW6OU9-37" value="&lt;font style=&quot;font-size: 12px&quot;&gt;&lt;span class=&quot;mord&quot; style=&quot;color: rgb(50 , 55 , 63) ; font-family: &amp;#34;katex_main&amp;#34; , &amp;#34;times new roman&amp;#34; , serif ; text-align: left ; background-color: rgb(255 , 255 , 255)&quot;&gt;&lt;span class=&quot;mord&quot;&gt;&lt;span class=&quot;mord mathcal&quot; style=&quot;font-family: &amp;#34;katex_caligraphic&amp;#34; ; margin-right: 0.08222em&quot;&gt;P&lt;/span&gt;&lt;/span&gt;&lt;span class=&quot;msupsub&quot;&gt;&lt;span class=&quot;vlist-t vlist-t2&quot; style=&quot;display: inline-table ; table-layout: fixed ; border-collapse: collapse ; margin-right: -2px&quot;&gt;&lt;span class=&quot;vlist-r&quot; style=&quot;display: table-row&quot;&gt;&lt;span class=&quot;vlist&quot; style=&quot;display: table-cell ; vertical-align: bottom ; position: relative ; height: 0.280556em&quot;&gt;&lt;span style=&quot;display: block ; height: 0px ; position: relative ; top: -2.55em ; margin-right: 0.05em&quot;&gt;&lt;span class=&quot;pstrut&quot; style=&quot;display: inline-block ; overflow: hidden ; width: 0px ; height: 2.7em&quot;&gt;&lt;/span&gt;&lt;span class=&quot;sizing reset-size6 size3 mtight&quot; style=&quot;display: inline-block&quot;&gt;&lt;span class=&quot;mord mtight&quot;&gt;&lt;span class=&quot;mord mathnormal mtight&quot; style=&quot;font-family: &amp;#34;katex_math&amp;#34;&quot;&gt;t&lt;/span&gt;&lt;span class=&quot;mord mathnormal mtight&quot; style=&quot;font-family: &amp;#34;katex_math&amp;#34;&quot;&gt;e&lt;/span&gt;&lt;span class=&quot;mord mathnormal mtight&quot; style=&quot;font-family: &amp;#34;katex_math&amp;#34;&quot;&gt;m&lt;/span&gt;&lt;span class=&quot;mord mathnormal mtight&quot; style=&quot;font-family: &amp;#34;katex_math&amp;#34;&quot;&gt;p&lt;/span&gt;&lt;/span&gt;&lt;/span&gt;&lt;/span&gt;&lt;/span&gt;&lt;span class=&quot;vlist-s&quot; style=&quot;display: table-cell ; vertical-align: bottom ; width: 2px ; min-width: 2px&quot;&gt;​&lt;/span&gt;&lt;/span&gt;&lt;span class=&quot;vlist-r&quot; style=&quot;display: table-row&quot;&gt;&lt;span class=&quot;vlist&quot; style=&quot;display: table-cell ; vertical-align: bottom ; position: relative ; height: 0.286108em&quot;&gt;&lt;span style=&quot;display: block ; height: 0px ; position: relative&quot;&gt;&lt;/span&gt;&lt;/span&gt;&lt;/span&gt;&lt;/span&gt;&lt;/span&gt;&lt;/span&gt;&lt;span class=&quot;mspace&quot; style=&quot;color: rgb(50 , 55 , 63) ; font-family: &amp;#34;katex_main&amp;#34; , &amp;#34;times new roman&amp;#34; , serif ; text-align: left ; background-color: rgb(255 , 255 , 255) ; display: inline-block ; margin-right: 0.277778em&quot;&gt;&lt;/span&gt;&lt;span class=&quot;mrel&quot; style=&quot;color: rgb(50 , 55 , 63) ; font-family: &amp;#34;katex_main&amp;#34; , &amp;#34;times new roman&amp;#34; , serif ; text-align: left ; background-color: rgb(255 , 255 , 255)&quot;&gt;=&lt;/span&gt;&lt;span class=&quot;mspace&quot; style=&quot;color: rgb(50 , 55 , 63) ; font-family: &amp;#34;katex_main&amp;#34; , &amp;#34;times new roman&amp;#34; , serif ; text-align: left ; background-color: rgb(255 , 255 , 255) ; display: inline-block ; margin-right: 0.277778em&quot;&gt;&lt;/span&gt;&lt;span class=&quot;mord&quot; style=&quot;color: rgb(50 , 55 , 63) ; font-family: &amp;#34;katex_main&amp;#34; , &amp;#34;times new roman&amp;#34; , serif ; text-align: left ; background-color: rgb(255 , 255 , 255)&quot;&gt;&lt;span class=&quot;mord&quot;&gt;&lt;span class=&quot;mord mathcal&quot; style=&quot;font-family: &amp;#34;katex_caligraphic&amp;#34; ; margin-right: 0.08222em&quot;&gt;P&lt;/span&gt;&lt;/span&gt;&lt;span class=&quot;msupsub&quot;&gt;&lt;span class=&quot;vlist-t vlist-t2&quot; style=&quot;display: inline-table ; table-layout: fixed ; border-collapse: collapse ; margin-right: -2px&quot;&gt;&lt;span class=&quot;vlist-r&quot; style=&quot;display: table-row&quot;&gt;&lt;span class=&quot;vlist&quot; style=&quot;display: table-cell ; vertical-align: bottom ; position: relative ; height: 0.280556em&quot;&gt;&lt;span style=&quot;display: block ; height: 0px ; position: relative ; top: -2.55em ; margin-right: 0.05em&quot;&gt;&lt;span class=&quot;pstrut&quot; style=&quot;display: inline-block ; overflow: hidden ; width: 0px ; height: 2.7em&quot;&gt;&lt;/span&gt;&lt;span class=&quot;sizing reset-size6 size3 mtight&quot; style=&quot;display: inline-block&quot;&gt;&lt;span class=&quot;mord mtight&quot;&gt;&lt;span class=&quot;mord mathnormal mtight&quot; style=&quot;font-family: &amp;#34;katex_math&amp;#34;&quot;&gt;t&lt;/span&gt;&lt;span class=&quot;mord mathnormal mtight&quot; style=&quot;font-family: &amp;#34;katex_math&amp;#34;&quot;&gt;e&lt;/span&gt;&lt;span class=&quot;mord mathnormal mtight&quot; style=&quot;font-family: &amp;#34;katex_math&amp;#34;&quot;&gt;m&lt;/span&gt;&lt;span class=&quot;mord mathnormal mtight&quot; style=&quot;font-family: &amp;#34;katex_math&amp;#34;&quot;&gt;p&lt;/span&gt;&lt;/span&gt;&lt;/span&gt;&lt;/span&gt;&lt;/span&gt;&lt;span class=&quot;vlist-s&quot; style=&quot;display: table-cell ; vertical-align: bottom ; width: 2px ; min-width: 2px&quot;&gt;​&lt;/span&gt;&lt;/span&gt;&lt;span class=&quot;vlist-r&quot; style=&quot;display: table-row&quot;&gt;&lt;span class=&quot;vlist&quot; style=&quot;display: table-cell ; vertical-align: bottom ; position: relative ; height: 0.286108em&quot;&gt;&lt;span style=&quot;display: block ; height: 0px ; position: relative&quot;&gt;&lt;/span&gt;&lt;/span&gt;&lt;/span&gt;&lt;/span&gt;&lt;/span&gt;&lt;/span&gt;&lt;span class=&quot;mspace&quot; style=&quot;color: rgb(50 , 55 , 63) ; font-family: &amp;#34;katex_main&amp;#34; , &amp;#34;times new roman&amp;#34; , serif ; text-align: left ; background-color: rgb(255 , 255 , 255) ; display: inline-block ; margin-right: 0.222222em&quot;&gt;&lt;/span&gt;&lt;span class=&quot;mbin&quot; style=&quot;color: rgb(50 , 55 , 63) ; font-family: &amp;#34;katex_main&amp;#34; , &amp;#34;times new roman&amp;#34; , serif ; text-align: left ; background-color: rgb(255 , 255 , 255)&quot;&gt;∪&lt;/span&gt;&lt;span class=&quot;mspace&quot; style=&quot;color: rgb(50 , 55 , 63) ; font-family: &amp;#34;katex_main&amp;#34; , &amp;#34;times new roman&amp;#34; , serif ; text-align: left ; background-color: rgb(255 , 255 , 255) ; display: inline-block ; margin-right: 0.222222em&quot;&gt;&lt;/span&gt;&lt;span class=&quot;mopen&quot; style=&quot;color: rgb(50 , 55 , 63) ; font-family: &amp;#34;katex_main&amp;#34; , &amp;#34;times new roman&amp;#34; , serif ; text-align: left ; background-color: rgb(255 , 255 , 255)&quot;&gt;{&lt;/span&gt;&lt;span class=&quot;mord mathnormal&quot; style=&quot;color: rgb(50 , 55 , 63) ; text-align: left ; background-color: rgb(255 , 255 , 255) ; font-family: &amp;#34;katex_math&amp;#34; ; margin-right: 0.02691em&quot;&gt;w&lt;/span&gt;&lt;span class=&quot;mord mathnormal&quot; style=&quot;color: rgb(50 , 55 , 63) ; text-align: left ; background-color: rgb(255 , 255 , 255) ; font-family: &amp;#34;katex_math&amp;#34;&quot;&gt;i&lt;/span&gt;&lt;span class=&quot;mord mathnormal&quot; style=&quot;color: rgb(50 , 55 , 63) ; text-align: left ; background-color: rgb(255 , 255 , 255) ; font-family: &amp;#34;katex_math&amp;#34;&quot;&gt;n&lt;/span&gt;&lt;span class=&quot;mord mathnormal&quot; style=&quot;color: rgb(50 , 55 , 63) ; text-align: left ; background-color: rgb(255 , 255 , 255) ; font-family: &amp;#34;katex_math&amp;#34;&quot;&gt;n&lt;/span&gt;&lt;span class=&quot;mord mathnormal&quot; style=&quot;color: rgb(50 , 55 , 63) ; text-align: left ; background-color: rgb(255 , 255 , 255) ; font-family: &amp;#34;katex_math&amp;#34;&quot;&gt;e&lt;/span&gt;&lt;span class=&quot;mord mathnormal&quot; style=&quot;color: rgb(50 , 55 , 63) ; text-align: left ; background-color: rgb(255 , 255 , 255) ; font-family: &amp;#34;katex_math&amp;#34; ; margin-right: 0.02778em&quot;&gt;r&lt;/span&gt;&lt;span class=&quot;mord cjk_fallback&quot; style=&quot;color: rgb(50 , 55 , 63) ; font-family: &amp;#34;katex_main&amp;#34; , &amp;#34;times new roman&amp;#34; , serif ; text-align: left ; background-color: rgb(255 , 255 , 255)&quot;&gt;，&lt;/span&gt;&lt;span class=&quot;mord mathnormal&quot; style=&quot;color: rgb(50 , 55 , 63) ; text-align: left ; background-color: rgb(255 , 255 , 255) ; font-family: &amp;#34;katex_math&amp;#34; ; margin-right: 0.02778em&quot;&gt;r&lt;/span&gt;&lt;span class=&quot;mord mathnormal&quot; style=&quot;color: rgb(50 , 55 , 63) ; text-align: left ; background-color: rgb(255 , 255 , 255) ; font-family: &amp;#34;katex_math&amp;#34;&quot;&gt;e&lt;/span&gt;&lt;span class=&quot;mord mathnormal&quot; style=&quot;color: rgb(50 , 55 , 63) ; text-align: left ; background-color: rgb(255 , 255 , 255) ; font-family: &amp;#34;katex_math&amp;#34;&quot;&gt;p&lt;/span&gt;&lt;span class=&quot;mord mathnormal&quot; style=&quot;color: rgb(50 , 55 , 63) ; text-align: left ; background-color: rgb(255 , 255 , 255) ; font-family: &amp;#34;katex_math&amp;#34; ; margin-right: 0.01968em&quot;&gt;l&lt;/span&gt;&lt;span class=&quot;mord mathnormal&quot; style=&quot;color: rgb(50 , 55 , 63) ; text-align: left ; background-color: rgb(255 , 255 , 255) ; font-family: &amp;#34;katex_math&amp;#34;&quot;&gt;i&lt;/span&gt;&lt;span class=&quot;mord mathnormal&quot; style=&quot;color: rgb(50 , 55 , 63) ; text-align: left ; background-color: rgb(255 , 255 , 255) ; font-family: &amp;#34;katex_math&amp;#34;&quot;&gt;c&lt;/span&gt;&lt;span class=&quot;mord mathnormal&quot; style=&quot;color: rgb(50 , 55 , 63) ; text-align: left ; background-color: rgb(255 , 255 , 255) ; font-family: &amp;#34;katex_math&amp;#34;&quot;&gt;a&lt;/span&gt;&lt;span class=&quot;mclose&quot; style=&quot;color: rgb(50 , 55 , 63) ; font-family: &amp;#34;katex_main&amp;#34; , &amp;#34;times new roman&amp;#34; , serif ; text-align: left ; background-color: rgb(255 , 255 , 255)&quot;&gt;}&lt;/span&gt;&lt;/font&gt;" style="rounded=0;whiteSpace=wrap;html=1;" vertex="1" parent="1">
          <mxGeometry x="187.5" y="590" width="255" height="30" as="geometry" />
        </mxCell>
        <mxCell id="Bj3Hy20XeD-8B7DW6OU9-43" style="edgeStyle=orthogonalEdgeStyle;rounded=0;orthogonalLoop=1;jettySize=auto;html=1;exitX=1;exitY=0.5;exitDx=0;exitDy=0;entryX=1;entryY=0.5;entryDx=0;entryDy=0;" edge="1" parent="1" source="Bj3Hy20XeD-8B7DW6OU9-40" target="Bj3Hy20XeD-8B7DW6OU9-24">
          <mxGeometry relative="1" as="geometry">
            <Array as="points">
              <mxPoint x="520" y="655" />
              <mxPoint x="520" y="370" />
            </Array>
          </mxGeometry>
        </mxCell>
        <mxCell id="Bj3Hy20XeD-8B7DW6OU9-44" value="否" style="edgeLabel;html=1;align=center;verticalAlign=middle;resizable=0;points=[];" vertex="1" connectable="0" parent="Bj3Hy20XeD-8B7DW6OU9-43">
          <mxGeometry x="-0.6108" y="4" relative="1" as="geometry">
            <mxPoint as="offset" />
          </mxGeometry>
        </mxCell>
        <mxCell id="Bj3Hy20XeD-8B7DW6OU9-46" value="" style="edgeStyle=orthogonalEdgeStyle;rounded=0;orthogonalLoop=1;jettySize=auto;html=1;" edge="1" parent="1" source="Bj3Hy20XeD-8B7DW6OU9-40" target="Bj3Hy20XeD-8B7DW6OU9-45">
          <mxGeometry relative="1" as="geometry" />
        </mxCell>
        <mxCell id="Bj3Hy20XeD-8B7DW6OU9-40" value="&lt;span class=&quot;mord&quot; style=&quot;color: rgb(50 , 55 , 63) ; font-family: &amp;#34;katex_main&amp;#34; , &amp;#34;times new roman&amp;#34; , serif ; text-align: left&quot;&gt;&lt;span class=&quot;mord mathcal&quot; style=&quot;font-family: &amp;#34;katex_caligraphic&amp;#34; ; margin-right: 0.08222em&quot;&gt;P&lt;/span&gt;&lt;/span&gt;&lt;span class=&quot;msupsub&quot; style=&quot;color: rgb(50 , 55 , 63) ; font-family: &amp;#34;katex_main&amp;#34; , &amp;#34;times new roman&amp;#34; , serif ; text-align: left&quot;&gt;&lt;span class=&quot;vlist-t vlist-t2&quot; style=&quot;display: inline-table ; table-layout: fixed ; border-collapse: collapse ; margin-right: -2px&quot;&gt;&lt;span class=&quot;vlist-r&quot; style=&quot;display: table-row&quot;&gt;&lt;span class=&quot;vlist&quot; style=&quot;display: table-cell ; vertical-align: bottom ; position: relative ; height: 0.151392em&quot;&gt;&lt;span style=&quot;display: block ; height: 0px ; position: relative ; top: -2.55em ; margin-right: 0.05em&quot;&gt;&lt;span class=&quot;pstrut&quot; style=&quot;display: inline-block ; overflow: hidden ; width: 0px ; height: 2.7em&quot;&gt;&lt;/span&gt;&lt;span class=&quot;sizing reset-size6 size3 mtight&quot; style=&quot;display: inline-block&quot;&gt;&lt;span class=&quot;mord mtight&quot;&gt;&lt;span class=&quot;mord mathnormal mtight&quot; style=&quot;font-family: &amp;#34;katex_math&amp;#34; ; font-style: italic ; margin-right: 0.03588em&quot;&gt;g&lt;/span&gt;&lt;/span&gt;&lt;/span&gt;&lt;span&gt;=&lt;/span&gt;&lt;span class=&quot;mspace&quot; style=&quot;display: inline-block ; background-color: rgb(255 , 255 , 255) ; margin-right: 0.277778em&quot;&gt;&lt;/span&gt;&lt;span class=&quot;mord&quot; style=&quot;background-color: rgb(255 , 255 , 255)&quot;&gt;∅?&lt;/span&gt;&lt;/span&gt;&lt;/span&gt;&lt;/span&gt;&lt;/span&gt;&lt;/span&gt;" style="rhombus;whiteSpace=wrap;html=1;" vertex="1" parent="1">
          <mxGeometry x="230" y="630" width="170" height="50" as="geometry" />
        </mxCell>
        <mxCell id="Bj3Hy20XeD-8B7DW6OU9-41" style="edgeStyle=orthogonalEdgeStyle;rounded=0;orthogonalLoop=1;jettySize=auto;html=1;exitX=0.5;exitY=1;exitDx=0;exitDy=0;" edge="1" parent="1" source="Bj3Hy20XeD-8B7DW6OU9-40" target="Bj3Hy20XeD-8B7DW6OU9-40">
          <mxGeometry relative="1" as="geometry" />
        </mxCell>
        <mxCell id="Bj3Hy20XeD-8B7DW6OU9-49" style="edgeStyle=orthogonalEdgeStyle;rounded=0;orthogonalLoop=1;jettySize=auto;html=1;exitX=0.5;exitY=1;exitDx=0;exitDy=0;entryX=0.5;entryY=0;entryDx=0;entryDy=0;" edge="1" parent="1" source="Bj3Hy20XeD-8B7DW6OU9-45" target="Bj3Hy20XeD-8B7DW6OU9-48">
          <mxGeometry relative="1" as="geometry" />
        </mxCell>
        <mxCell id="Bj3Hy20XeD-8B7DW6OU9-45" value="&lt;div style=&quot;line-height: 1.75&quot;&gt;&lt;font style=&quot;font-size: 12px&quot;&gt;&lt;span style=&quot;font-family: &amp;#34;times new roman&amp;#34; ; color: rgb(50 , 55 , 63) ; background-color: rgb(255 , 255 , 255)&quot;&gt;找到种群中占比最大的策略，记录该策略&lt;/span&gt;&lt;span style=&quot;font-family: &amp;#34;times new roman&amp;#34; ; color: rgb(50 , 55 , 63) ; background-color: rgb(255 , 255 , 255) ; font-style: italic&quot;&gt;s&lt;/span&gt;&lt;span style=&quot;font-family: &amp;#34;times new roman&amp;#34; ; color: rgb(50 , 55 , 63) ; background-color: rgb(255 , 255 , 255) ; font-style: italic&quot;&gt;g&lt;/span&gt;&lt;span style=&quot;font-family: &amp;#34;times new roman&amp;#34; ; color: rgb(50 , 55 , 63) ; background-color: rgb(255 , 255 , 255)&quot;&gt;∗&lt;/span&gt;&lt;span style=&quot;font-family: &amp;#34;times new roman&amp;#34; ; color: rgb(50 , 55 , 63) ; background-color: rgb(255 , 255 , 255)&quot;&gt;​&lt;/span&gt;&lt;/font&gt;&lt;/div&gt;" style="rounded=0;whiteSpace=wrap;html=1;" vertex="1" parent="1">
          <mxGeometry x="185" y="710" width="260" height="40" as="geometry" />
        </mxCell>
        <mxCell id="Bj3Hy20XeD-8B7DW6OU9-47" value="是" style="text;html=1;align=center;verticalAlign=middle;resizable=0;points=[];autosize=1;" vertex="1" parent="1">
          <mxGeometry x="315" y="680" width="30" height="20" as="geometry" />
        </mxCell>
        <mxCell id="Bj3Hy20XeD-8B7DW6OU9-51" style="edgeStyle=orthogonalEdgeStyle;rounded=0;orthogonalLoop=1;jettySize=auto;html=1;exitX=0.5;exitY=1;exitDx=0;exitDy=0;entryX=0.5;entryY=0;entryDx=0;entryDy=0;" edge="1" parent="1" source="Bj3Hy20XeD-8B7DW6OU9-48" target="Bj3Hy20XeD-8B7DW6OU9-50">
          <mxGeometry relative="1" as="geometry" />
        </mxCell>
        <mxCell id="Bj3Hy20XeD-8B7DW6OU9-48" value="&lt;div style=&quot;line-height: 1.75&quot;&gt;&lt;font style=&quot;font-size: 12px&quot;&gt;&lt;span style=&quot;font-family: &amp;#34;times new roman&amp;#34; ; color: rgb(50 , 55 , 63) ; background-color: rgb(255 , 255 , 255)&quot;&gt;以概率&lt;/span&gt;&lt;span style=&quot;font-family: &amp;#34;times new roman&amp;#34; ; color: rgb(50 , 55 , 63) ; background-color: rgb(255 , 255 , 255)&quot;&gt;P&lt;/span&gt;&lt;span style=&quot;font-family: &amp;#34;times new roman&amp;#34; ; color: rgb(50 , 55 , 63) ; background-color: rgb(255 , 255 , 255)&quot;&gt;&lt;sub&gt;m&lt;/sub&gt;&lt;/span&gt;&lt;span style=&quot;font-family: &amp;#34;times new roman&amp;#34; ; color: rgb(50 , 55 , 63) ; background-color: rgb(255 , 255 , 255)&quot;&gt;​&lt;/span&gt;&lt;span style=&quot;font-family: &amp;#34;times new roman&amp;#34; ; color: rgb(50 , 55 , 63) ; background-color: rgb(255 , 255 , 255)&quot;&gt;对种群中博弈主体的策略进行变异，得到下一轮的种群：P&lt;/span&gt;&lt;sub&gt;&lt;span style=&quot;font-family: &amp;#34;times new roman&amp;#34; ; color: rgb(50 , 55 , 63) ; background-color: rgb(255 , 255 , 255)&quot;&gt;g&lt;/span&gt;&lt;span style=&quot;font-family: &amp;#34;times new roman&amp;#34; ; color: rgb(50 , 55 , 63) ; background-color: rgb(255 , 255 , 255)&quot;&gt;+1&lt;/span&gt;&lt;/sub&gt;&lt;span style=&quot;font-family: &amp;#34;times new roman&amp;#34; ; color: rgb(50 , 55 , 63) ; background-color: rgb(255 , 255 , 255)&quot;&gt;​&lt;/span&gt;&lt;span style=&quot;font-family: &amp;#34;times new roman&amp;#34; ; color: rgb(50 , 55 , 63) ; background-color: rgb(255 , 255 , 255)&quot;&gt;=&lt;/span&gt;&lt;span style=&quot;font-family: &amp;#34;times new roman&amp;#34; ; color: rgb(50 , 55 , 63) ; background-color: rgb(255 , 255 , 255)&quot;&gt;mutate&lt;/span&gt;&lt;span style=&quot;font-family: &amp;#34;times new roman&amp;#34; ; color: rgb(50 , 55 , 63) ; background-color: rgb(255 , 255 , 255)&quot;&gt;(P&lt;/span&gt;&lt;span style=&quot;font-family: &amp;#34;times new roman&amp;#34; ; color: rgb(50 , 55 , 63) ; background-color: rgb(255 , 255 , 255)&quot;&gt;&lt;sub&gt;temp&lt;/sub&gt;&lt;/span&gt;&lt;span style=&quot;font-family: &amp;#34;times new roman&amp;#34; ; color: rgb(50 , 55 , 63) ; background-color: rgb(255 , 255 , 255)&quot;&gt;​&lt;/span&gt;&lt;span style=&quot;font-family: &amp;#34;times new roman&amp;#34; ; color: rgb(50 , 55 , 63) ; background-color: rgb(255 , 255 , 255)&quot;&gt;)&lt;/span&gt;&lt;/font&gt;&lt;/div&gt;" style="rounded=0;whiteSpace=wrap;html=1;" vertex="1" parent="1">
          <mxGeometry x="130" y="770" width="370" height="60" as="geometry" />
        </mxCell>
        <mxCell id="Bj3Hy20XeD-8B7DW6OU9-53" style="edgeStyle=orthogonalEdgeStyle;rounded=0;orthogonalLoop=1;jettySize=auto;html=1;exitX=0.5;exitY=1;exitDx=0;exitDy=0;entryX=0.5;entryY=0;entryDx=0;entryDy=0;" edge="1" parent="1" source="Bj3Hy20XeD-8B7DW6OU9-50" target="Bj3Hy20XeD-8B7DW6OU9-52">
          <mxGeometry relative="1" as="geometry" />
        </mxCell>
        <mxCell id="Bj3Hy20XeD-8B7DW6OU9-50" value="&lt;div style=&quot;line-height: 1.75&quot;&gt;&lt;font style=&quot;font-size: 12px&quot;&gt;&lt;span style=&quot;font-family: &amp;#34;times new roman&amp;#34; ; color: rgb(50 , 55 , 63) ; background-color: rgb(255 , 255 , 255) ; font-style: italic&quot;&gt;g&lt;/span&gt;&lt;span style=&quot;font-family: &amp;#34;times new roman&amp;#34; ; color: rgb(50 , 55 , 63) ; background-color: rgb(255 , 255 , 255)&quot;&gt;=&lt;/span&gt;&lt;span style=&quot;font-family: &amp;#34;times new roman&amp;#34; ; color: rgb(50 , 55 , 63) ; background-color: rgb(255 , 255 , 255) ; font-style: italic&quot;&gt;g&lt;/span&gt;&lt;span style=&quot;font-family: &amp;#34;times new roman&amp;#34; ; color: rgb(50 , 55 , 63) ; background-color: rgb(255 , 255 , 255)&quot;&gt;+1&lt;/span&gt;&lt;/font&gt;&lt;/div&gt;" style="rounded=0;whiteSpace=wrap;html=1;" vertex="1" parent="1">
          <mxGeometry x="270" y="850" width="90" height="40" as="geometry" />
        </mxCell>
        <mxCell id="Bj3Hy20XeD-8B7DW6OU9-54" style="edgeStyle=orthogonalEdgeStyle;rounded=0;orthogonalLoop=1;jettySize=auto;html=1;exitX=1;exitY=0.5;exitDx=0;exitDy=0;entryX=1;entryY=0.5;entryDx=0;entryDy=0;" edge="1" parent="1" source="Bj3Hy20XeD-8B7DW6OU9-52" target="Bj3Hy20XeD-8B7DW6OU9-25">
          <mxGeometry relative="1" as="geometry">
            <Array as="points">
              <mxPoint x="550" y="950" />
              <mxPoint x="550" y="315" />
            </Array>
          </mxGeometry>
        </mxCell>
        <mxCell id="Bj3Hy20XeD-8B7DW6OU9-55" value="否" style="edgeLabel;html=1;align=center;verticalAlign=middle;resizable=0;points=[];" vertex="1" connectable="0" parent="Bj3Hy20XeD-8B7DW6OU9-54">
          <mxGeometry x="-0.8838" y="2" relative="1" as="geometry">
            <mxPoint as="offset" />
          </mxGeometry>
        </mxCell>
        <mxCell id="Bj3Hy20XeD-8B7DW6OU9-58" style="edgeStyle=orthogonalEdgeStyle;rounded=0;orthogonalLoop=1;jettySize=auto;html=1;exitX=0.5;exitY=1;exitDx=0;exitDy=0;entryX=0.5;entryY=0;entryDx=0;entryDy=0;" edge="1" parent="1" source="Bj3Hy20XeD-8B7DW6OU9-52" target="Bj3Hy20XeD-8B7DW6OU9-57">
          <mxGeometry relative="1" as="geometry" />
        </mxCell>
        <mxCell id="Bj3Hy20XeD-8B7DW6OU9-52" value="&lt;font style=&quot;font-size: 12px&quot;&gt;&lt;span class=&quot;mord cjk_fallback&quot; style=&quot;color: rgb(50 , 55 , 63) ; font-family: &amp;#34;katex_main&amp;#34; , &amp;#34;times new roman&amp;#34; , serif ; text-align: left ; background-color: rgb(255 , 255 , 255)&quot;&gt;种&lt;/span&gt;&lt;span class=&quot;mord cjk_fallback&quot; style=&quot;color: rgb(50 , 55 , 63) ; font-family: &amp;#34;katex_main&amp;#34; , &amp;#34;times new roman&amp;#34; , serif ; text-align: left ; background-color: rgb(255 , 255 , 255)&quot;&gt;群&lt;/span&gt;&lt;span class=&quot;mord cjk_fallback&quot; style=&quot;color: rgb(50 , 55 , 63) ; font-family: &amp;#34;katex_main&amp;#34; , &amp;#34;times new roman&amp;#34; , serif ; text-align: left ; background-color: rgb(255 , 255 , 255)&quot;&gt;博&lt;/span&gt;&lt;span class=&quot;mord cjk_fallback&quot; style=&quot;color: rgb(50 , 55 , 63) ; font-family: &amp;#34;katex_main&amp;#34; , &amp;#34;times new roman&amp;#34; , serif ; text-align: left ; background-color: rgb(255 , 255 , 255)&quot;&gt;弈&lt;/span&gt;&lt;span class=&quot;mord cjk_fallback&quot; style=&quot;color: rgb(50 , 55 , 63) ; font-family: &amp;#34;katex_main&amp;#34; , &amp;#34;times new roman&amp;#34; , serif ; text-align: left ; background-color: rgb(255 , 255 , 255)&quot;&gt;达&lt;/span&gt;&lt;span class=&quot;mord cjk_fallback&quot; style=&quot;color: rgb(50 , 55 , 63) ; font-family: &amp;#34;katex_main&amp;#34; , &amp;#34;times new roman&amp;#34; , serif ; text-align: left ; background-color: rgb(255 , 255 , 255)&quot;&gt;到&lt;/span&gt;&lt;span class=&quot;mord cjk_fallback&quot; style=&quot;color: rgb(50 , 55 , 63) ; font-family: &amp;#34;katex_main&amp;#34; , &amp;#34;times new roman&amp;#34; , serif ; text-align: left ; background-color: rgb(255 , 255 , 255)&quot;&gt;演&lt;/span&gt;&lt;span class=&quot;mord cjk_fallback&quot; style=&quot;color: rgb(50 , 55 , 63) ; font-family: &amp;#34;katex_main&amp;#34; , &amp;#34;times new roman&amp;#34; , serif ; text-align: left ; background-color: rgb(255 , 255 , 255)&quot;&gt;化&lt;/span&gt;&lt;span class=&quot;mord cjk_fallback&quot; style=&quot;color: rgb(50 , 55 , 63) ; font-family: &amp;#34;katex_main&amp;#34; , &amp;#34;times new roman&amp;#34; , serif ; text-align: left ; background-color: rgb(255 , 255 , 255)&quot;&gt;均&lt;/span&gt;&lt;span class=&quot;mord cjk_fallback&quot; style=&quot;color: rgb(50 , 55 , 63) ; font-family: &amp;#34;katex_main&amp;#34; , &amp;#34;times new roman&amp;#34; , serif ; text-align: left ; background-color: rgb(255 , 255 , 255)&quot;&gt;衡&lt;/span&gt;&lt;span class=&quot;mopen&quot; style=&quot;color: rgb(50 , 55 , 63) ; font-family: &amp;#34;katex_main&amp;#34; , &amp;#34;times new roman&amp;#34; , serif ; text-align: left ; background-color: rgb(255 , 255 , 255)&quot;&gt;(&lt;/span&gt;&lt;span class=&quot;mord&quot; style=&quot;color: rgb(50 , 55 , 63) ; font-family: &amp;#34;katex_main&amp;#34; , &amp;#34;times new roman&amp;#34; , serif ; text-align: left ; background-color: rgb(255 , 255 , 255)&quot;&gt;&lt;span class=&quot;mord mathnormal&quot; style=&quot;font-family: &amp;#34;katex_math&amp;#34; ; font-style: italic&quot;&gt;s&lt;/span&gt;&lt;span class=&quot;msupsub&quot;&gt;&lt;span class=&quot;vlist-t vlist-t2&quot; style=&quot;display: inline-table ; table-layout: fixed ; border-collapse: collapse ; margin-right: -2px&quot;&gt;&lt;span class=&quot;vlist-r&quot; style=&quot;display: table-row&quot;&gt;&lt;span class=&quot;vlist&quot; style=&quot;display: table-cell ; vertical-align: bottom ; position: relative ; height: 0.688696em&quot;&gt;&lt;span style=&quot;display: block ; height: 0px ; position: relative ; top: -2.453em ; margin-left: 0em ; margin-right: 0.05em&quot;&gt;&lt;span class=&quot;pstrut&quot; style=&quot;display: inline-block ; overflow: hidden ; width: 0px ; height: 2.7em&quot;&gt;&lt;/span&gt;&lt;span class=&quot;sizing reset-size6 size3 mtight&quot; style=&quot;display: inline-block&quot;&gt;&lt;span class=&quot;mord mathnormal mtight&quot; style=&quot;font-family: &amp;#34;katex_math&amp;#34; ; font-style: italic ; margin-right: 0.03588em&quot;&gt;g&lt;/span&gt;&lt;/span&gt;&lt;/span&gt;&lt;span style=&quot;display: block ; height: 0px ; position: relative ; top: -3.063em ; margin-right: 0.05em&quot;&gt;&lt;span class=&quot;pstrut&quot; style=&quot;display: inline-block ; overflow: hidden ; width: 0px ; height: 2.7em&quot;&gt;&lt;/span&gt;&lt;span class=&quot;sizing reset-size6 size3 mtight&quot; style=&quot;display: inline-block&quot;&gt;&lt;span class=&quot;mbin mtight&quot;&gt;∗&lt;/span&gt;&lt;/span&gt;&lt;/span&gt;&lt;/span&gt;&lt;span class=&quot;vlist-s&quot; style=&quot;display: table-cell ; vertical-align: bottom ; width: 2px ; min-width: 2px&quot;&gt;​&lt;/span&gt;&lt;/span&gt;&lt;span class=&quot;vlist-r&quot; style=&quot;display: table-row&quot;&gt;&lt;span class=&quot;vlist&quot; style=&quot;display: table-cell ; vertical-align: bottom ; position: relative ; height: 0.383108em&quot;&gt;&lt;span style=&quot;display: block ; height: 0px ; position: relative&quot;&gt;&lt;/span&gt;&lt;/span&gt;&lt;/span&gt;&lt;/span&gt;&lt;/span&gt;&lt;/span&gt;&lt;span class=&quot;mspace&quot; style=&quot;color: rgb(50 , 55 , 63) ; font-family: &amp;#34;katex_main&amp;#34; , &amp;#34;times new roman&amp;#34; , serif ; text-align: left ; background-color: rgb(255 , 255 , 255) ; display: inline-block ; margin-right: 0.277778em&quot;&gt;&lt;/span&gt;&lt;span class=&quot;mrel&quot; style=&quot;color: rgb(50 , 55 , 63) ; font-family: &amp;#34;katex_main&amp;#34; , &amp;#34;times new roman&amp;#34; , serif ; text-align: left ; background-color: rgb(255 , 255 , 255)&quot;&gt;=&lt;/span&gt;&lt;span class=&quot;mspace&quot; style=&quot;color: rgb(50 , 55 , 63) ; font-family: &amp;#34;katex_main&amp;#34; , &amp;#34;times new roman&amp;#34; , serif ; text-align: left ; background-color: rgb(255 , 255 , 255) ; display: inline-block ; margin-right: 0.277778em&quot;&gt;&lt;/span&gt;&lt;span class=&quot;mord&quot; style=&quot;color: rgb(50 , 55 , 63) ; font-family: &amp;#34;katex_main&amp;#34; , &amp;#34;times new roman&amp;#34; , serif ; text-align: left ; background-color: rgb(255 , 255 , 255)&quot;&gt;&lt;span class=&quot;mord mathnormal&quot; style=&quot;font-family: &amp;#34;katex_math&amp;#34; ; font-style: italic&quot;&gt;s&lt;/span&gt;&lt;span class=&quot;msupsub&quot;&gt;&lt;span class=&quot;vlist-t vlist-t2&quot; style=&quot;display: inline-table ; table-layout: fixed ; border-collapse: collapse ; margin-right: -2px&quot;&gt;&lt;span class=&quot;vlist-r&quot; style=&quot;display: table-row&quot;&gt;&lt;span class=&quot;vlist&quot; style=&quot;display: table-cell ; vertical-align: bottom ; position: relative ; height: 0.688696em&quot;&gt;&lt;span style=&quot;display: block ; height: 0px ; position: relative ; top: -2.45189em ; margin-left: 0em ; margin-right: 0.05em&quot;&gt;&lt;span class=&quot;pstrut&quot; style=&quot;display: inline-block ; overflow: hidden ; width: 0px ; height: 2.7em&quot;&gt;&lt;/span&gt;&lt;span class=&quot;sizing reset-size6 size3 mtight&quot; style=&quot;display: inline-block&quot;&gt;&lt;span class=&quot;mord mtight&quot;&gt;&lt;span class=&quot;mord mathnormal mtight&quot; style=&quot;font-family: &amp;#34;katex_math&amp;#34; ; font-style: italic ; margin-right: 0.03588em&quot;&gt;g&lt;/span&gt;&lt;span class=&quot;mbin mtight&quot;&gt;−&lt;/span&gt;&lt;span class=&quot;mord mtight&quot;&gt;1&lt;/span&gt;&lt;/span&gt;&lt;/span&gt;&lt;/span&gt;&lt;span style=&quot;display: block ; height: 0px ; position: relative ; top: -3.063em ; margin-right: 0.05em&quot;&gt;&lt;span class=&quot;pstrut&quot; style=&quot;display: inline-block ; overflow: hidden ; width: 0px ; height: 2.7em&quot;&gt;&lt;/span&gt;&lt;span class=&quot;sizing reset-size6 size3 mtight&quot; style=&quot;display: inline-block&quot;&gt;&lt;span class=&quot;mbin mtight&quot;&gt;∗&lt;/span&gt;&lt;/span&gt;&lt;/span&gt;&lt;/span&gt;&lt;span class=&quot;vlist-s&quot; style=&quot;display: table-cell ; vertical-align: bottom ; width: 2px ; min-width: 2px&quot;&gt;​&lt;/span&gt;&lt;/span&gt;&lt;span class=&quot;vlist-r&quot; style=&quot;display: table-row&quot;&gt;&lt;span class=&quot;vlist&quot; style=&quot;display: table-cell ; vertical-align: bottom ; position: relative ; height: 0.384216em&quot;&gt;&lt;span style=&quot;display: block ; height: 0px ; position: relative&quot;&gt;&lt;/span&gt;&lt;/span&gt;&lt;/span&gt;&lt;/span&gt;&lt;/span&gt;&lt;/span&gt;&lt;span class=&quot;mclose&quot; style=&quot;color: rgb(50 , 55 , 63) ; font-family: &amp;#34;katex_main&amp;#34; , &amp;#34;times new roman&amp;#34; , serif ; text-align: left ; background-color: rgb(255 , 255 , 255)&quot;&gt;)&lt;/span&gt;&lt;span class=&quot;mord cjk_fallback&quot; style=&quot;color: rgb(50 , 55 , 63) ; font-family: &amp;#34;katex_main&amp;#34; , &amp;#34;times new roman&amp;#34; , serif ; text-align: left ; background-color: rgb(255 , 255 , 255)&quot;&gt;或&lt;br&gt;&lt;/span&gt;&lt;span class=&quot;mord cjk_fallback&quot; style=&quot;color: rgb(50 , 55 , 63) ; font-family: &amp;#34;katex_main&amp;#34; , &amp;#34;times new roman&amp;#34; , serif ; text-align: left ; background-color: rgb(255 , 255 , 255)&quot;&gt;达&lt;/span&gt;&lt;span class=&quot;mord cjk_fallback&quot; style=&quot;color: rgb(50 , 55 , 63) ; font-family: &amp;#34;katex_main&amp;#34; , &amp;#34;times new roman&amp;#34; , serif ; text-align: left ; background-color: rgb(255 , 255 , 255)&quot;&gt;到&lt;/span&gt;&lt;span class=&quot;mord cjk_fallback&quot; style=&quot;color: rgb(50 , 55 , 63) ; font-family: &amp;#34;katex_main&amp;#34; , &amp;#34;times new roman&amp;#34; , serif ; text-align: left ; background-color: rgb(255 , 255 , 255)&quot;&gt;最&lt;/span&gt;&lt;span class=&quot;mord cjk_fallback&quot; style=&quot;color: rgb(50 , 55 , 63) ; font-family: &amp;#34;katex_main&amp;#34; , &amp;#34;times new roman&amp;#34; , serif ; text-align: left ; background-color: rgb(255 , 255 , 255)&quot;&gt;大&lt;/span&gt;&lt;span class=&quot;mord cjk_fallback&quot; style=&quot;color: rgb(50 , 55 , 63) ; font-family: &amp;#34;katex_main&amp;#34; , &amp;#34;times new roman&amp;#34; , serif ; text-align: left ; background-color: rgb(255 , 255 , 255)&quot;&gt;轮&lt;/span&gt;&lt;span class=&quot;mord cjk_fallback&quot; style=&quot;color: rgb(50 , 55 , 63) ; font-family: &amp;#34;katex_main&amp;#34; , &amp;#34;times new roman&amp;#34; , serif ; text-align: left ; background-color: rgb(255 , 255 , 255)&quot;&gt;数&lt;/span&gt;&lt;span class=&quot;mopen&quot; style=&quot;color: rgb(50 , 55 , 63) ; font-family: &amp;#34;katex_main&amp;#34; , &amp;#34;times new roman&amp;#34; , serif ; text-align: left ; background-color: rgb(255 , 255 , 255)&quot;&gt;(&lt;/span&gt;&lt;span class=&quot;mord mathnormal&quot; style=&quot;color: rgb(50 , 55 , 63) ; text-align: left ; background-color: rgb(255 , 255 , 255) ; font-family: &amp;#34;katex_math&amp;#34; ; font-style: italic ; margin-right: 0.03588em&quot;&gt;g&lt;/span&gt;&lt;span class=&quot;mspace&quot; style=&quot;color: rgb(50 , 55 , 63) ; font-family: &amp;#34;katex_main&amp;#34; , &amp;#34;times new roman&amp;#34; , serif ; text-align: left ; background-color: rgb(255 , 255 , 255) ; display: inline-block ; margin-right: 0.277778em&quot;&gt;&lt;/span&gt;&lt;span class=&quot;mrel&quot; style=&quot;color: rgb(50 , 55 , 63) ; font-family: &amp;#34;katex_main&amp;#34; , &amp;#34;times new roman&amp;#34; , serif ; text-align: left ; background-color: rgb(255 , 255 , 255)&quot;&gt;=&lt;/span&gt;&lt;span class=&quot;mspace&quot; style=&quot;color: rgb(50 , 55 , 63) ; font-family: &amp;#34;katex_main&amp;#34; , &amp;#34;times new roman&amp;#34; , serif ; text-align: left ; background-color: rgb(255 , 255 , 255) ; display: inline-block ; margin-right: 0.277778em&quot;&gt;&lt;/span&gt;&lt;span class=&quot;mord&quot; style=&quot;color: rgb(50 , 55 , 63) ; font-family: &amp;#34;katex_main&amp;#34; , &amp;#34;times new roman&amp;#34; , serif ; text-align: left ; background-color: rgb(255 , 255 , 255)&quot;&gt;&lt;span class=&quot;mord mathnormal&quot; style=&quot;font-family: &amp;#34;katex_math&amp;#34; ; font-style: italic&quot;&gt;G&lt;/span&gt;&lt;span class=&quot;msupsub&quot;&gt;&lt;span class=&quot;vlist-t vlist-t2&quot; style=&quot;display: inline-table ; table-layout: fixed ; border-collapse: collapse ; margin-right: -2px&quot;&gt;&lt;span class=&quot;vlist-r&quot; style=&quot;display: table-row&quot;&gt;&lt;span class=&quot;vlist&quot; style=&quot;display: table-cell ; vertical-align: bottom ; position: relative ; height: 0.151392em&quot;&gt;&lt;span style=&quot;display: block ; height: 0px ; position: relative ; top: -2.55em ; margin-left: 0em ; margin-right: 0.05em&quot;&gt;&lt;span class=&quot;pstrut&quot; style=&quot;display: inline-block ; overflow: hidden ; width: 0px ; height: 2.7em&quot;&gt;&lt;/span&gt;&lt;span class=&quot;sizing reset-size6 size3 mtight&quot; style=&quot;display: inline-block&quot;&gt;&lt;span class=&quot;mord mtight&quot;&gt;&lt;span class=&quot;mord mathnormal mtight&quot; style=&quot;font-family: &amp;#34;katex_math&amp;#34; ; font-style: italic&quot;&gt;m&lt;/span&gt;&lt;span class=&quot;mord mathnormal mtight&quot; style=&quot;font-family: &amp;#34;katex_math&amp;#34; ; font-style: italic&quot;&gt;a&lt;/span&gt;&lt;span class=&quot;mord mathnormal mtight&quot; style=&quot;font-family: &amp;#34;katex_math&amp;#34; ; font-style: italic&quot;&gt;x&lt;/span&gt;&lt;/span&gt;&lt;/span&gt;&lt;/span&gt;&lt;/span&gt;&lt;span class=&quot;vlist-s&quot; style=&quot;display: table-cell ; vertical-align: bottom ; width: 2px ; min-width: 2px&quot;&gt;​&lt;/span&gt;&lt;/span&gt;&lt;span class=&quot;vlist-r&quot; style=&quot;display: table-row&quot;&gt;&lt;span class=&quot;vlist&quot; style=&quot;display: table-cell ; vertical-align: bottom ; position: relative ; height: 0.15em&quot;&gt;&lt;span style=&quot;display: block ; height: 0px ; position: relative&quot;&gt;&lt;/span&gt;&lt;/span&gt;&lt;/span&gt;&lt;/span&gt;&lt;/span&gt;&lt;/span&gt;&lt;span class=&quot;mclose&quot; style=&quot;color: rgb(50 , 55 , 63) ; font-family: &amp;#34;katex_main&amp;#34; , &amp;#34;times new roman&amp;#34; , serif ; text-align: left ; background-color: rgb(255 , 255 , 255)&quot;&gt;)？&lt;/span&gt;&lt;/font&gt;" style="rhombus;whiteSpace=wrap;html=1;" vertex="1" parent="1">
          <mxGeometry x="155" y="910" width="320" height="80" as="geometry" />
        </mxCell>
        <mxCell id="Bj3Hy20XeD-8B7DW6OU9-61" value="" style="edgeStyle=orthogonalEdgeStyle;rounded=0;orthogonalLoop=1;jettySize=auto;html=1;" edge="1" parent="1" source="Bj3Hy20XeD-8B7DW6OU9-57" target="Bj3Hy20XeD-8B7DW6OU9-60">
          <mxGeometry relative="1" as="geometry" />
        </mxCell>
        <mxCell id="Bj3Hy20XeD-8B7DW6OU9-57" value="&lt;font style=&quot;font-size: 12px&quot;&gt;输出：&lt;span class=&quot;mord cjk_fallback&quot; style=&quot;background-color: rgb(255 , 255 , 255) ; color: rgb(50 , 55 , 63) ; font-family: &amp;#34;katex_main&amp;#34; , &amp;#34;times new roman&amp;#34; , serif ; text-align: left&quot;&gt;最&lt;/span&gt;&lt;span class=&quot;mord cjk_fallback&quot; style=&quot;background-color: rgb(255 , 255 , 255) ; color: rgb(50 , 55 , 63) ; font-family: &amp;#34;katex_main&amp;#34; , &amp;#34;times new roman&amp;#34; , serif ; text-align: left&quot;&gt;佳&lt;/span&gt;&lt;span class=&quot;mord cjk_fallback&quot; style=&quot;background-color: rgb(255 , 255 , 255) ; color: rgb(50 , 55 , 63) ; font-family: &amp;#34;katex_main&amp;#34; , &amp;#34;times new roman&amp;#34; , serif ; text-align: left&quot;&gt;请&lt;/span&gt;&lt;span class=&quot;mord cjk_fallback&quot; style=&quot;background-color: rgb(255 , 255 , 255) ; color: rgb(50 , 55 , 63) ; font-family: &amp;#34;katex_main&amp;#34; , &amp;#34;times new roman&amp;#34; , serif ; text-align: left&quot;&gt;求&lt;/span&gt;&lt;span class=&quot;mord cjk_fallback&quot; style=&quot;background-color: rgb(255 , 255 , 255) ; color: rgb(50 , 55 , 63) ; font-family: &amp;#34;katex_main&amp;#34; , &amp;#34;times new roman&amp;#34; , serif ; text-align: left&quot;&gt;分&lt;/span&gt;&lt;span class=&quot;mord cjk_fallback&quot; style=&quot;background-color: rgb(255 , 255 , 255) ; color: rgb(50 , 55 , 63) ; font-family: &amp;#34;katex_main&amp;#34; , &amp;#34;times new roman&amp;#34; , serif ; text-align: left&quot;&gt;配&lt;/span&gt;&lt;span class=&quot;mord cjk_fallback&quot; style=&quot;background-color: rgb(255 , 255 , 255) ; color: rgb(50 , 55 , 63) ; font-family: &amp;#34;katex_main&amp;#34; , &amp;#34;times new roman&amp;#34; , serif ; text-align: left&quot;&gt;和&lt;/span&gt;&lt;span class=&quot;mord cjk_fallback&quot; style=&quot;background-color: rgb(255 , 255 , 255) ; color: rgb(50 , 55 , 63) ; font-family: &amp;#34;katex_main&amp;#34; , &amp;#34;times new roman&amp;#34; , serif ; text-align: left&quot;&gt;服&lt;/span&gt;&lt;span class=&quot;mord cjk_fallback&quot; style=&quot;background-color: rgb(255 , 255 , 255) ; color: rgb(50 , 55 , 63) ; font-family: &amp;#34;katex_main&amp;#34; , &amp;#34;times new roman&amp;#34; , serif ; text-align: left&quot;&gt;务&lt;/span&gt;&lt;span class=&quot;mord cjk_fallback&quot; style=&quot;background-color: rgb(255 , 255 , 255) ; color: rgb(50 , 55 , 63) ; font-family: &amp;#34;katex_main&amp;#34; , &amp;#34;times new roman&amp;#34; , serif ; text-align: left&quot;&gt;放&lt;/span&gt;&lt;span class=&quot;mord cjk_fallback&quot; style=&quot;background-color: rgb(255 , 255 , 255) ; color: rgb(50 , 55 , 63) ; font-family: &amp;#34;katex_main&amp;#34; , &amp;#34;times new roman&amp;#34; , serif ; text-align: left&quot;&gt;置&lt;/span&gt;&lt;span class=&quot;mord cjk_fallback&quot; style=&quot;background-color: rgb(255 , 255 , 255) ; color: rgb(50 , 55 , 63) ; font-family: &amp;#34;katex_main&amp;#34; , &amp;#34;times new roman&amp;#34; , serif ; text-align: left&quot;&gt;决&lt;/span&gt;&lt;span class=&quot;mord cjk_fallback&quot; style=&quot;background-color: rgb(255 , 255 , 255) ; color: rgb(50 , 55 , 63) ; font-family: &amp;#34;katex_main&amp;#34; , &amp;#34;times new roman&amp;#34; , serif ; text-align: left&quot;&gt;策&lt;/span&gt;&lt;span class=&quot;mord&quot; style=&quot;background-color: rgb(255 , 255 , 255) ; color: rgb(50 , 55 , 63) ; font-family: &amp;#34;katex_main&amp;#34; , &amp;#34;times new roman&amp;#34; , serif ; text-align: left&quot;&gt;&lt;span class=&quot;mord mathnormal&quot; style=&quot;font-family: &amp;#34;katex_math&amp;#34; ; font-style: italic&quot;&gt;s&lt;sub&gt;g&lt;/sub&gt;*&lt;br&gt;&lt;/span&gt;&lt;/span&gt;&lt;/font&gt;" style="shape=parallelogram;perimeter=parallelogramPerimeter;whiteSpace=wrap;html=1;fixedSize=1;" vertex="1" parent="1">
          <mxGeometry x="185" y="1020" width="265" height="40" as="geometry" />
        </mxCell>
        <mxCell id="Bj3Hy20XeD-8B7DW6OU9-59" value="是" style="text;html=1;align=center;verticalAlign=middle;resizable=0;points=[];autosize=1;" vertex="1" parent="1">
          <mxGeometry x="315" y="990" width="30" height="20" as="geometry" />
        </mxCell>
        <mxCell id="Bj3Hy20XeD-8B7DW6OU9-60" value="结束" style="strokeWidth=2;html=1;shape=mxgraph.flowchart.terminator;whiteSpace=wrap;" vertex="1" parent="1">
          <mxGeometry x="281.25" y="1080" width="72.5" height="40" as="geometry" />
        </mxCell>
      </root>
    </mxGraphModel>
  </diagram>
</mxfile>
